<svg width="47" height="55" viewBox="0 0 47 55" fill="none" xmlns="http://www.w3.org/2000/svg">
<g opacity="0.9">
<path fill-rule="evenodd" clip-rule="evenodd" d="M4.94727 12.0657L23.228 6.60645L40.895 12.0657C40.895 12.0657 40.895 24.9325 40.895 33.03C40.895 44.5582 23.228 48.9397 23.228 48.9397C23.228 48.9397 4.94727 44.8974 4.94727 33.03C4.94727 24.9325 4.94727 12.0657 4.94727 12.0657Z" stroke="#979797"/>
<path fill-rule="evenodd" clip-rule="evenodd" d="M1 7.83487L23.8841 1L46 7.83487C46 7.83487 46 23.9437 46 34.0815C46 48.5146 23.8841 54 23.8841 54C23.8841 54 1 48.9392 1 34.0815C1 23.9437 1 7.83487 1 7.83487Z" stroke="#979797"/>
<path d="M17.2739 8.50415L20.0412 14.6485H26.3457L29.1196 8.50415" stroke="#979797"/>
<path d="M26.3457 14.6484L29.1196 38.339L23.1968 40.956L17.2739 38.339L20.0412 14.6484" stroke="#979797"/>
</g>
</svg>
