<svg width="47" height="61" viewBox="0 0 47 61" fill="none" xmlns="http://www.w3.org/2000/svg">
<g opacity="0.9">
<rect x="18.207" y="8.26184" width="17.6512" height="23.8682" rx="8.82558" stroke="#979797"/>
<path d="M35.8582 21.3871L20.6479 10.8667" stroke="#979797"/>
<path d="M45.9184 59.7675C45.9184 59.7675 45.9184 35.1764 45.9184 31.0039C45.9184 26.8314 42.6652 27.528 42.6652 27.528H34.9658" stroke="#979797"/>
<path d="M18.8828 27.5279H10.6553C10.6553 27.5279 7.79541 27.4283 7.79541 30.4628C7.79541 33.4972 7.79541 59.7674 7.79541 59.7674H31.8244C31.8244 59.7674 37.1472 58.5286 37.1472 54.4556C37.1472 50.3826 37.1472 41.0973 37.1472 41.0973" stroke="#979797"/>
<path d="M20.6479 29.2466L31.0087 59.7675" stroke="#979797"/>
<path d="M27.0327 48.9684C27.0327 48.9684 30.568 48.9684 32.767 48.9684C34.9661 48.9684 37.1474 51.4815 37.1474 54.4556" stroke="#979797"/>
<path d="M13.7226 59.7674V27.528" stroke="#979797"/>
<path d="M9.35191 23.7363L6.65869 19.2631" stroke="#979797"/>
<path d="M1.3833 23.7362L6.65901 27.5279" stroke="#979797"/>
<path d="M0 32.1301H4.9973" stroke="#979797"/>
<path d="M37.9212 1L35.8579 4.70898" stroke="#979797"/>
<path d="M42.9293 5.85291L38.9229 8.26183" stroke="#979797"/>
<path d="M45.9187 13.5998H40.4424" stroke="#979797"/>
</g>
</svg>
