<svg width="57" height="58" viewBox="0 0 57 58" fill="none" xmlns="http://www.w3.org/2000/svg">
<path d="M40.4087 19.2973V56.1637H51.5005V19.2973" stroke="#979797"/>
<path d="M51.5004 37.1351C51.5004 37.1351 55.8066 36.8807 55.8066 34.0255C55.8066 25.758 55.8066 15.4205 55.8066 15.4205C55.8066 15.4205 53.347 11.8033 45.9545 11.8033C38.562 11.8033 36.2036 15.4205 36.2036 15.4205V33.0346" stroke="#979797"/>
<path d="M23.288 34.7063L17.7695 18.4754C17.7695 18.4754 14.8816 14.8121 10.7609 14.8121C6.64009 14.8121 4.25705 17.428 4.25705 17.428C4.25705 17.428 2.44689 22.5702 1.20327 27.2529C0.302434 30.6449 3.3938 34.2155 3.3938 34.2155" stroke="#979797"/>
<ellipse cx="10.8632" cy="9.57418" rx="5.28846" ry="5.35885" stroke="#979797"/>
<ellipse cx="46.0311" cy="6.35885" rx="5.28846" ry="5.35885" stroke="#979797"/>
<ellipse cx="28.8438" cy="33.4211" rx="3.4375" ry="3.48325" stroke="#979797"/>
<path d="M6.32348 21.1923L1.20312 45.4829H20.3183L15.0197 21.1923" stroke="#979797"/>
<path d="M7.1084 47.6696L8.68693 57.001H13.0179L13.8215 47.6696" stroke="#979797"/>
<path d="M46.3793 56.1637V39.1839" stroke="#979797"/>
<path d="M19.3306 35.4453H22.6565" stroke="#979797"/>
<path d="M20.9937 35.4453L24.2362 39.843" stroke="#979797"/>
<path d="M36.6131 34.7064L33.4429 39.1839" stroke="#979797"/>
<rect x="23.8198" y="39.8517" width="9.25481" height="9.37799" stroke="#979797"/>
<path d="M25.976 49.2297V56.1637" stroke="#979797"/>
<path d="M31.4013 49.2297V56.1637" stroke="#979797"/>
</svg>
