<svg width="61" height="54" viewBox="0 0 61 54" fill="none" xmlns="http://www.w3.org/2000/svg">
<path d="M15.3125 25.7474L30.4163 10.5362L45.3811 25.7474" stroke="#979797"/>
<path d="M19.0981 22.0993V35.8463H22.677V25.7474H28.4607V35.8463H41.7278V22.0993" stroke="#979797"/>
<rect x="32.3774" y="24.8044" width="5.63182" height="5.92746" stroke="#979797"/>
<path d="M26.8794 47.6525C26.8794 47.6525 8.87982 38.298 8.49444 27.3091C8.10906 16.3202 15.8099 8.17761 15.8099 8.17761" stroke="#979797"/>
<path d="M34.1206 47.6525C34.1206 47.6525 52.1202 38.298 52.5056 27.3091C52.8909 16.3202 45.1901 8.17761 45.1901 8.17761" stroke="#979797"/>
<path fill-rule="evenodd" clip-rule="evenodd" d="M38.3199 1.00457C38.3199 1.00457 41.7832 0.918271 43.452 2.46065C45.1208 4.00303 45.1899 8.17762 45.1899 8.17762C45.1899 8.17762 41.7418 8.11145 40.0308 6.17689C38.3199 4.24234 38.3199 1.00457 38.3199 1.00457Z" stroke="#979797"/>
<path fill-rule="evenodd" clip-rule="evenodd" d="M50.4814 4.57021C50.4814 4.57021 52.8626 7.09819 52.8384 9.37618C52.8141 11.6542 49.7724 14.4991 49.7724 14.4991C49.7724 14.4991 47.5141 11.8805 47.8003 9.30858C48.0864 6.7367 50.4814 4.57021 50.4814 4.57021Z" stroke="#979797"/>
<path fill-rule="evenodd" clip-rule="evenodd" d="M58.4788 16.3411C58.4788 16.3411 59.1055 19.7642 57.8502 21.6614C56.5949 23.5586 52.5016 24.2802 52.5016 24.2802C52.5016 24.2802 52.0273 20.8484 53.6615 18.848C55.2957 16.8476 58.4788 16.3411 58.4788 16.3411Z" stroke="#979797"/>
<path fill-rule="evenodd" clip-rule="evenodd" d="M59.7513 30.1482C59.7513 30.1482 58.6475 33.4473 56.6341 34.4953C54.6207 35.5432 50.6924 34.1807 50.6924 34.1807C50.6924 34.1807 51.9336 30.948 54.3282 29.9944C56.7229 29.0408 59.7513 30.1482 59.7513 30.1482Z" stroke="#979797"/>
<path fill-rule="evenodd" clip-rule="evenodd" d="M54.2767 41.3332C54.2767 41.3332 51.9327 43.8961 49.6691 44.0307C47.4055 44.1653 44.3684 41.3153 44.3684 41.3153C44.3684 41.3153 46.811 38.8694 49.3847 38.9767C51.9584 39.0841 54.2767 41.3332 54.2767 41.3332Z" stroke="#979797"/>
<path fill-rule="evenodd" clip-rule="evenodd" d="M45.7181 49.6061C45.7181 49.6061 42.7005 51.3158 40.5063 50.7411C38.3121 50.1663 36.3003 46.513 36.3003 46.513C36.3003 46.513 39.3757 44.9451 41.7904 45.8462C44.2051 46.7474 45.7181 49.6061 45.7181 49.6061Z" stroke="#979797"/>
<path fill-rule="evenodd" clip-rule="evenodd" d="M22.6801 1.00457C22.6801 1.00457 19.2168 0.918271 17.548 2.46065C15.8792 4.00303 15.8101 8.17762 15.8101 8.17762C15.8101 8.17762 19.2582 8.11145 20.9692 6.17689C22.6801 4.24234 22.6801 1.00457 22.6801 1.00457Z" stroke="#979797"/>
<path fill-rule="evenodd" clip-rule="evenodd" d="M10.5186 4.57021C10.5186 4.57021 8.13739 7.09819 8.16164 9.37618C8.1859 11.6542 11.2276 14.4991 11.2276 14.4991C11.2276 14.4991 13.4859 11.8805 13.1997 9.30858C12.9136 6.7367 10.5186 4.57021 10.5186 4.57021Z" stroke="#979797"/>
<path fill-rule="evenodd" clip-rule="evenodd" d="M2.52116 16.3411C2.52116 16.3411 1.89454 19.7642 3.14981 21.6614C4.40509 23.5586 8.49836 24.2802 8.49836 24.2802C8.49836 24.2802 8.97271 20.8484 7.33848 18.848C5.70425 16.8476 2.52116 16.3411 2.52116 16.3411Z" stroke="#979797"/>
<path fill-rule="evenodd" clip-rule="evenodd" d="M1.24871 30.1482C1.24871 30.1482 2.35251 33.4473 4.36593 34.4953C6.37934 35.5432 10.3076 34.1807 10.3076 34.1807C10.3076 34.1807 9.06642 30.948 6.67177 29.9944C4.27712 29.0408 1.24871 30.1482 1.24871 30.1482Z" stroke="#979797"/>
<path fill-rule="evenodd" clip-rule="evenodd" d="M6.72331 41.3332C6.72331 41.3332 9.06734 43.8961 11.3309 44.0307C13.5945 44.1653 16.6316 41.3153 16.6316 41.3153C16.6316 41.3153 14.189 38.8694 11.6153 38.9767C9.04157 39.0841 6.72331 41.3332 6.72331 41.3332Z" stroke="#979797"/>
<path fill-rule="evenodd" clip-rule="evenodd" d="M15.2819 49.6061C15.2819 49.6061 18.2995 51.3158 20.4937 50.7411C22.6879 50.1663 24.6997 46.513 24.6997 46.513C24.6997 46.513 21.6243 44.9451 19.2096 45.8462C16.7949 46.7474 15.2819 49.6061 15.2819 49.6061Z" stroke="#979797"/>
</svg>
