<svg width="54" height="44" viewBox="0 0 54 44" fill="none" xmlns="http://www.w3.org/2000/svg">
<rect x="1" y="7.15546" width="52" height="35.6203" stroke="#979797"/>
<path d="M20.2632 4.08033V1H34.1176V4.08033" stroke="#979797"/>
<rect x="10.8667" y="20.1808" width="7.2" height="9.3038" stroke="#979797"/>
<rect x="35.9331" y="20.1808" width="7.2" height="9.3038" stroke="#979797"/>
<path d="M11.9742 7.15546V20.1808" stroke="#979797"/>
<path d="M37.0406 7.15546V20.1808" stroke="#979797"/>
<path d="M11.9742 29.4846V42.7757" stroke="#979797"/>
<path d="M37.0406 29.4846V42.7757" stroke="#979797"/>
<path d="M17.1387 42.7757V29.4846" stroke="#979797"/>
<path d="M42.2056 42.7757V29.4846" stroke="#979797"/>
<path d="M17.1387 20.1808V7.15546" stroke="#979797"/>
<path d="M42.2056 20.1808V7.15546" stroke="#979797"/>
<path d="M14.4668 26.4297V30.5967" stroke="#979797"/>
<path d="M39.6665 26.4297V30.5967" stroke="#979797"/>
<path d="M53.0001 17.3588C53.0001 17.3588 51.6501 24.3771 47.0324 24.3771C42.4147 24.3771 43.1334 24.3771 43.1334 24.3771" stroke="#979797"/>
<path d="M35.9336 24.3771H18.0669" stroke="#979797"/>
<path d="M10.8667 24.3771C10.8667 24.3771 9.32135 24.3771 6.91432 24.3771C4.50729 24.3771 1 22.4341 1 17.3588" stroke="#979797"/>
<path d="M22.4947 20.1808V22.2565" stroke="#979797"/>
<path d="M26.8667 20.1808V22.2565" stroke="#979797"/>
<path d="M31.3999 20.1808V22.2565" stroke="#979797"/>
</svg>
