<svg width="57" height="54" viewBox="0 0 57 54" fill="none" xmlns="http://www.w3.org/2000/svg">
<g opacity="0.9">
<path d="M32.0654 52.8166H48.5954" stroke="#979797"/>
<path d="M45.7408 52.8166L55.9456 36.4199V22.9398C55.9456 22.9398 51.2681 22.9398 51.2681 25.9276C51.2681 28.9154 51.2681 33.6062 51.2681 33.6062L41.1206 44.005" stroke="#979797"/>
<path d="M35.3691 52.8166V42.6697L44.0734 33.5337C44.0734 33.5337 47.1308 34.79 45.9224 38.9826" stroke="#979797"/>
<path d="M47.1973 37.8782C47.1973 37.8782 47.1973 29.6284 47.1973 29.6284C47.6153 26.7513 51.1384 25.9276 51.1384 25.9276" stroke="#979797"/>
<path d="M24.8804 52.8166H8.35038" stroke="#979797"/>
<path d="M11.205 52.8166L1.0002 36.4199V22.9398C1.0002 22.9398 5.67772 22.9398 5.67772 25.9276C5.67772 28.9154 5.67772 33.6062 5.67772 33.6062L15.8252 44.005" stroke="#979797"/>
<path d="M21.5767 52.8166V42.6697L12.8724 33.5337C12.8724 33.5337 9.815 34.79 11.0234 38.9826" stroke="#979797"/>
<path d="M9.74854 37.8782C9.74854 37.8782 9.74854 29.6284 9.74854 29.6284C9.33052 26.7513 5.8074 25.9276 5.8074 25.9276" stroke="#979797"/>
<path d="M54.0951 19.3774V14.0791C54.0951 14.0791 51.9412 10.9314 45.8534 10.9314C39.7656 10.9314 36.8292 14.0791 36.8292 14.0791V34.99L32.8349 28.5919H22.7676L18.9121 34.99L15.1751 16.9593C15.1751 16.9593 13.228 14.0791 8.81673 14.0791C4.40543 14.0791 2.31096 16.9593 2.31096 16.9593L1.2876 19.9145" stroke="#979797"/>
<path d="M22.7676 28.5918L22.7676 39.6549H32.8349V28.5918" stroke="#979797"/>
<path d="M30.626 39.6549V47.484" stroke="#979797"/>
<path d="M25.0357 47.484V39.6549" stroke="#979797"/>
<ellipse cx="27.6701" cy="21.8265" rx="4.11836" ry="4.11225" stroke="#979797"/>
<ellipse cx="8.67274" cy="8.95923" rx="4.78261" ry="4.77551" stroke="#979797"/>
<ellipse cx="45.6049" cy="5.77551" rx="4.78261" ry="4.77551" stroke="#979797"/>
</g>
</svg>
