<svg width="59" height="55" viewBox="0 0 59 55" fill="none" xmlns="http://www.w3.org/2000/svg">
<path d="M1 26.3546C1 26.3546 7.4676 2.82257 29.2091 2.82257C50.9505 2.82257 57.9936 27.3146 57.9936 27.3146" stroke="#979797"/>
<path d="M51.2706 27.3146C51.2706 27.3146 48.4068 6.42678 29.4966 2.82257" stroke="#979797"/>
<path d="M39.5719 28.6945C39.5719 28.6945 39.7247 8.41137 29.4966 2.82257" stroke="#979797"/>
<path d="M19.25 28.6945C19.25 28.6945 19.4191 7.98323 29.4967 2.82257" stroke="#979797"/>
<path d="M7.69678 27.3146C7.69678 27.3146 11.8061 6.45054 29.2091 2.82257" stroke="#979797"/>
<path d="M1 26.3546C1 26.3546 4.18857 23.4216 5.56961 24.0544C6.95064 24.6872 7.6967 27.3146 7.6967 27.3146C7.6967 27.3146 10.3808 22.9679 14.4168 23.5112C18.4529 24.0544 19.2501 28.6945 19.2501 28.6945C19.2501 28.6945 23.6493 22.9679 29.4968 23.5112C35.3442 24.0544 39.5744 28.6945 39.5744 28.6945C39.5744 28.6945 42.137 22.9679 45.6879 23.5112C49.2388 24.0544 51.2708 27.3146 51.2708 27.3146C51.2708 27.3146 51.8625 23.5788 54.0476 24.0544C56.2327 24.5301 57.9936 27.3146 57.9936 27.3146" stroke="#979797"/>
<path d="M29.209 23.4508L29.4967 44.1702" stroke="#979797"/>
<path d="M28.875 47.2085C28.875 47.2085 28.875 49.5413 28.875 51.0278C28.875 54.9766 35.9675 54.9766 35.9675 50.3488" stroke="#979797"/>
<path d="M29.2091 2.82259V0" stroke="#979797"/>
</svg>
