<svg width="336" height="194" viewBox="0 0 336 194" fill="none" xmlns="http://www.w3.org/2000/svg">
<path fill-rule="evenodd" clip-rule="evenodd" d="M62.6535 194L21 146.179C21 146.179 72.2802 94.881 108.551 68.7104C144.822 42.5397 223.594 0 223.594 0L292 71.5633L273.298 95.0328C273.298 95.0328 197.253 115.534 161.924 132.133C126.594 148.732 62.6535 194 62.6535 194Z" fill="#D3E9F4"/>
<path fill-rule="evenodd" clip-rule="evenodd" d="M193.732 149C202.295 149 209.573 147.269 215.568 143.808C221.562 140.346 226.443 135.693 230.21 129.848C233.978 124.003 236.718 117.222 238.431 109.504C240.144 101.786 241 93.6716 241 85.1595C241 76.6475 240.144 68.561 238.431 60.9001C236.718 53.2393 233.978 46.5431 230.21 40.8117C226.443 35.0802 221.562 30.5121 215.568 27.1072C209.573 23.7024 202.295 22 193.732 22C185.169 22 177.861 23.7024 171.81 27.1072C165.759 30.5121 160.821 35.0802 156.996 40.8117C153.171 46.5431 150.402 53.2393 148.69 60.9001C146.977 68.561 146.121 76.6475 146.121 85.1595C146.121 93.6716 146.977 101.786 148.69 109.504C150.402 117.222 153.171 124.003 156.996 129.848C160.821 135.693 165.759 140.346 171.81 143.808C177.861 147.269 185.169 149 193.732 149ZM108.854 146.361C103.26 148.12 97.4938 149 91.5567 149C86.0763 149 80.8528 148.291 75.8862 146.872C70.9196 145.453 66.4097 143.439 62.3565 140.828C58.3033 138.218 54.821 135.012 51.9095 131.21C48.9981 127.408 46.8573 123.123 45.4872 118.357L71.6903 110.355C72.9462 114.555 75.3154 118.016 78.7977 120.74C82.28 123.464 86.4188 124.826 91.2142 124.826C96.1237 124.826 100.377 123.35 103.973 120.399C107.57 117.449 109.368 113.079 109.368 107.291C109.368 103.773 108.626 100.822 107.142 98.4383C105.657 96.055 103.745 94.1539 101.404 92.7353C99.0637 91.3166 96.4091 90.3235 93.4406 89.756C90.4721 89.1886 87.5035 88.9048 84.535 88.9048C80.1963 88.9048 75.2583 89.3872 69.7208 90.3519C64.1833 91.3166 59.2453 92.5934 54.9066 94.1823L57.8181 25.2346H132.146V49.7493H83.3361L82.3086 68.8164C84.1354 68.3624 86.1619 68.0503 88.3884 67.88C90.6148 67.7098 92.6414 67.6247 94.4682 67.6247C100.519 67.6247 106.228 68.4191 111.594 70.008C116.961 71.597 121.613 74.0087 125.552 77.2433C129.491 80.4779 132.603 84.4786 134.886 89.2453C137.17 94.0121 138.311 99.5733 138.311 105.929C138.311 113.306 136.998 119.69 134.372 125.081C131.746 130.472 128.235 134.927 123.84 138.445C119.444 141.963 114.449 144.602 108.854 146.361ZM43.5006 90.0965V112.228H0V90.0965H43.5006ZM184.484 120.485C186.881 123.152 189.964 124.485 193.732 124.485C197.499 124.485 200.554 123.152 202.894 120.485C205.235 117.817 207.033 114.526 208.289 110.611C209.545 106.695 210.401 102.439 210.858 97.8425C211.315 93.246 211.543 89.0183 211.543 85.1595C211.543 81.4142 211.315 77.2717 210.858 72.7319C210.401 68.1921 209.545 63.9645 208.289 60.0489C207.033 56.1334 205.235 52.842 202.894 50.1749C200.554 47.5078 197.499 46.1743 193.732 46.1743C189.964 46.1743 186.881 47.5078 184.484 50.1749C182.086 52.842 180.23 56.1334 178.917 60.0489C177.604 63.9645 176.72 68.1921 176.263 72.7319C175.806 77.2717 175.578 81.4142 175.578 85.1595C175.578 89.0183 175.806 93.246 176.263 97.8425C176.72 102.439 177.604 106.695 178.917 110.611C180.23 114.526 182.086 117.817 184.484 120.485Z" fill="#1596FF"/>
<path fill-rule="evenodd" clip-rule="evenodd" d="M276.691 107L317.574 36.3605L308.456 32L267.965 102.736L276.691 107ZM269.142 70.5659C271.691 70.5659 274.109 70.0814 276.397 69.1124C278.684 68.1434 280.662 66.8353 282.328 65.188C283.995 63.5407 285.318 61.6027 286.299 59.374C287.279 57.1453 287.769 54.7713 287.769 52.2519C287.769 49.668 287.279 47.2616 286.299 45.0329C285.318 42.8043 283.995 40.8663 282.328 39.219C280.662 37.5717 278.684 36.2797 276.397 35.343C274.109 34.4063 271.691 33.938 269.142 33.938C266.593 33.938 264.174 34.4063 261.887 35.343C259.599 36.2797 257.622 37.5717 255.955 39.219C254.289 40.8663 252.965 42.8043 251.985 45.0329C251.004 47.2616 250.514 49.668 250.514 52.2519C250.514 54.7713 251.004 57.1453 251.985 59.374C252.965 61.6027 254.289 63.5407 255.955 65.188C257.622 66.8353 259.599 68.1434 261.887 69.1124C264.174 70.0814 266.593 70.5659 269.142 70.5659ZM263.75 57.5329C265.253 58.9864 267.05 59.7132 269.142 59.7132C271.233 59.7132 273.031 58.9864 274.534 57.5329C276.037 56.0795 276.789 54.3191 276.789 52.2519C276.789 50.1848 276.037 48.4083 274.534 46.9225C273.031 45.4367 271.233 44.6938 269.142 44.6938C267.05 44.6938 265.253 45.4367 263.75 46.9225C262.246 48.4083 261.495 50.1848 261.495 52.2519C261.495 54.3191 262.246 56.0795 263.75 57.5329ZM316.201 104.868C318.75 104.868 321.168 104.384 323.456 103.415C325.744 102.446 327.721 101.138 329.387 99.4903C331.054 97.843 332.378 95.905 333.358 93.6764C334.338 91.4477 334.829 89.0736 334.829 86.5543C334.829 84.0349 334.338 81.6609 333.358 79.4322C332.378 77.2035 331.054 75.2655 329.387 73.6182C327.721 71.9709 325.744 70.6628 323.456 69.6938C321.168 68.7248 318.75 68.2403 316.201 68.2403C313.652 68.2403 311.234 68.7248 308.946 69.6938C306.658 70.6628 304.681 71.9709 303.015 73.6182C301.348 75.2655 300.024 77.2035 299.044 79.4322C298.064 81.6609 297.573 84.0349 297.573 86.5543C297.573 89.0736 298.064 91.4477 299.044 93.6764C300.024 95.905 301.348 97.843 303.015 99.4903C304.681 101.138 306.658 102.446 308.946 103.415C311.234 104.384 313.652 104.868 316.201 104.868ZM310.809 91.8353C312.312 93.2888 314.11 94.0155 316.201 94.0155C317.247 94.0155 318.227 93.8217 319.142 93.4341C320.057 93.0465 320.858 92.5136 321.544 91.8353C322.231 91.157 322.786 90.3656 323.211 89.4612C323.636 88.5568 323.848 87.5879 323.848 86.5543C323.848 85.5207 323.636 84.5355 323.211 83.5988C322.786 82.6621 322.231 81.8547 321.544 81.1764C320.858 80.4981 320.057 79.9651 319.142 79.5775C318.227 79.1899 317.247 78.9961 316.201 78.9961C314.11 78.9961 312.312 79.739 310.809 81.2248C309.306 82.7106 308.554 84.4871 308.554 86.5543C308.554 88.6214 309.306 90.3818 310.809 91.8353Z" fill="#1596FF"/>
<path fill-rule="evenodd" clip-rule="evenodd" d="M259.183 135.559C258.594 136.141 257.835 136.597 256.905 136.926C255.975 137.256 254.988 137.421 253.944 137.421C252.824 137.421 251.78 137.247 250.812 136.897C249.844 136.548 249.004 136.039 248.292 135.37C247.58 134.701 247.02 133.891 246.612 132.94C246.204 131.99 246 130.913 246 129.711C246 128.527 246.204 127.46 246.612 126.51C247.02 125.559 247.58 124.75 248.292 124.08C249.004 123.411 249.844 122.897 250.812 122.538C251.78 122.179 252.814 122 253.915 122C254.428 122 254.935 122.048 255.438 122.145C255.941 122.242 256.425 122.373 256.891 122.538C257.356 122.703 257.783 122.907 258.172 123.149C258.561 123.392 258.898 123.658 259.183 123.949L256.478 127.15C256.212 126.801 255.851 126.52 255.396 126.306C254.94 126.093 254.475 125.986 254.001 125.986C253.507 125.986 253.061 126.088 252.662 126.292C252.264 126.495 251.922 126.767 251.637 127.106C251.353 127.446 251.13 127.839 250.968 128.285C250.807 128.731 250.726 129.206 250.726 129.711C250.726 130.215 250.802 130.69 250.954 131.136C251.106 131.582 251.329 131.975 251.623 132.315C251.917 132.654 252.269 132.921 252.677 133.115C253.085 133.309 253.545 133.406 254.058 133.406C254.532 133.406 255.002 133.314 255.467 133.129C255.932 132.945 256.307 132.678 256.592 132.329L259.183 135.559ZM263.869 131.398V136.956H259.2V122.466H263.869V127.732C264.287 127.751 264.695 127.81 265.093 127.907L268.339 122.466H273.493L269.022 129.478C270.218 130.292 271.167 131.33 271.87 132.591C272.572 133.852 273.132 135.307 273.55 136.956H268.396C268.187 135.947 267.941 135.103 267.656 134.424C267.371 133.745 267.044 133.197 266.674 132.78C266.303 132.363 265.886 132.048 265.421 131.835C264.956 131.621 264.438 131.476 263.869 131.398ZM278.919 136.956L285.155 128.576V136.956H289.824V122.466H285.155L278.919 130.787V122.466H274.25V136.956H278.919ZM293.77 136.956V141H289.955V133.26H292.29L296.276 122.466H301.97L305.729 133.26H308.177V141H304.362V136.956H293.77ZM301.059 133.26H297.13L298.867 127.79H299.436L301.059 133.26ZM312.978 131.398V136.956H308.308V122.466H312.978V127.732C313.395 127.751 313.803 127.81 314.202 127.907L317.448 122.466H322.601L318.131 129.478C319.327 130.292 320.276 131.33 320.978 132.591C321.68 133.852 322.24 135.307 322.658 136.956H317.505C317.296 135.947 317.049 135.103 316.764 134.424C316.48 133.745 316.152 133.197 315.782 132.78C315.412 132.363 314.994 132.048 314.529 131.835C314.064 131.621 313.547 131.476 312.978 131.398ZM327.629 137.305C328.483 137.305 329.276 137.14 330.007 136.81C330.737 136.48 331.283 136.015 331.644 135.413H331.729V136.956H336V129.652C336 128.333 335.881 127.194 335.644 126.234C335.407 125.273 335.032 124.478 334.519 123.848C334.007 123.217 333.338 122.752 332.512 122.451C331.686 122.15 330.676 122 329.48 122C328.322 122 327.188 122.204 326.078 122.611C324.967 123.018 323.994 123.629 323.159 124.444L325.522 127.034C325.959 126.626 326.486 126.277 327.103 125.986C327.719 125.695 328.36 125.55 329.024 125.55C329.746 125.55 330.353 125.719 330.847 126.059C331.34 126.398 331.587 126.927 331.587 127.645V127.877C330.562 127.877 329.508 127.936 328.426 128.052C327.345 128.168 326.362 128.401 325.48 128.75C324.597 129.1 323.876 129.594 323.316 130.234C322.756 130.874 322.476 131.718 322.476 132.766C322.476 133.619 322.637 134.337 322.96 134.919C323.283 135.501 323.695 135.966 324.198 136.315C324.701 136.665 325.257 136.917 325.864 137.072C326.471 137.227 327.06 137.305 327.629 137.305ZM328.085 134.031C328.332 134.08 328.569 134.104 328.797 134.104C329.746 134.104 330.472 133.837 330.975 133.304C331.478 132.771 331.729 132.048 331.729 131.136V130.642H331.131C330.619 130.642 330.102 130.666 329.58 130.714C329.058 130.763 328.593 130.855 328.184 130.991C327.776 131.127 327.439 131.325 327.174 131.587C326.908 131.849 326.775 132.193 326.775 132.62C326.775 132.892 326.837 133.125 326.96 133.319C327.084 133.513 327.24 133.668 327.43 133.784C327.62 133.9 327.838 133.983 328.085 134.031Z" fill="#1596FF"/>
</svg>
