<svg width="173" height="174" viewBox="0 0 173 174" fill="none" xmlns="http://www.w3.org/2000/svg">
<path fill-rule="evenodd" clip-rule="evenodd" d="M87.1724 0L69 21.2454C69 21.2454 87.0197 34.9856 101.261 41.9646C115.502 48.9436 144 58 144 58L87.1724 0Z" fill="url(#paint0_linear)"/>
<path fill-rule="evenodd" clip-rule="evenodd" d="M61.2888 27L41 50.1709C41 50.1709 65.9778 75.0267 83.6447 87.7074C101.312 100.388 139.681 121 139.681 121L173 86.325L163.89 74.9532C163.89 74.9532 126.85 65.0194 109.642 56.9766C92.4333 48.9338 61.2888 27 61.2888 27Z" fill="url(#paint1_linear)"/>
<path fill-rule="evenodd" clip-rule="evenodd" d="M30.3755 56L0 87.1946L86.3707 174L130 131.917C130 131.917 93.4745 111.646 75.3271 97.8169C57.1797 83.9881 30.3755 56 30.3755 56Z" fill="url(#paint2_linear)"/>
<defs>
<linearGradient id="paint0_linear" x1="60.8657" y1="131.725" x2="0.0690119" y2="45.4123" gradientUnits="userSpaceOnUse">
<stop stop-color="#C900FF"/>
<stop offset="1" stop-color="#3B1CFF"/>
</linearGradient>
<linearGradient id="paint1_linear" x1="26.6836" y1="240.485" x2="-68.8674" y2="93.1718" gradientUnits="userSpaceOnUse">
<stop stop-color="#0080FF"/>
<stop offset="1" stop-color="#3B1CFF"/>
</linearGradient>
<linearGradient id="paint2_linear" x1="-14.0995" y1="323.992" x2="-143.12" y2="167.935" gradientUnits="userSpaceOnUse">
<stop stop-color="#0080FF"/>
<stop offset="1" stop-color="#3B1CFF"/>
</linearGradient>
</defs>
</svg>
