<svg width="277" height="77" viewBox="0 0 277 77" fill="none" xmlns="http://www.w3.org/2000/svg">
<path fill-rule="evenodd" clip-rule="evenodd" d="M38.1339 5.14984e-05L30.1196 9.3575C30.1196 9.3575 38.0665 15.4093 44.3469 18.4832C50.6274 21.557 63.1954 25.5459 63.1954 25.5459L38.1339 5.14984e-05Z" fill="url(#paint0_linear)"/>
<path fill-rule="evenodd" clip-rule="evenodd" d="M26.4887 11.545L17.5107 21.8077C17.5107 21.8077 28.5636 32.8165 36.3813 38.4329C44.1991 44.0492 61.1777 53.1785 61.1777 53.1785L75.9217 37.8206L71.8907 32.7839C71.8907 32.7839 55.5002 28.3842 47.8853 24.8219C40.2704 21.2597 26.4887 11.545 26.4887 11.545Z" fill="url(#paint1_linear)"/>
<path fill-rule="evenodd" clip-rule="evenodd" d="M13.2913 24.4205L0 38.268L37.793 76.8015L56.8838 58.1204C56.8838 58.1204 40.9014 49.122 32.9607 42.9833C25.02 36.8446 13.2913 24.4205 13.2913 24.4205Z" fill="url(#paint2_linear)"/>
<path fill-rule="evenodd" clip-rule="evenodd" d="M193.554 45.3015C191.895 46.9615 189.901 47.7915 187.572 47.7915C186.427 47.7915 185.328 47.5682 184.275 47.1215C183.262 46.6948 182.367 46.0882 181.59 45.3015C180.807 44.5148 180.202 43.6148 179.774 42.6015C179.327 41.5482 179.103 40.4448 179.103 39.2915C179.103 38.1448 179.327 37.0448 179.774 35.9915C180.202 34.9715 180.807 34.0715 181.59 33.2915C183.242 31.6315 185.236 30.8015 187.572 30.8015C188.717 30.8015 189.813 31.0215 190.859 31.4615C191.872 31.8948 192.77 32.5048 193.554 33.2915C194.337 34.0715 194.942 34.9715 195.37 35.9915C195.811 37.0448 196.031 38.1448 196.031 39.2915C196.031 40.4448 195.811 41.5482 195.37 42.6015C194.942 43.6148 194.337 44.5148 193.554 45.3015ZM135.082 47.8015C135.628 47.8015 136.171 47.7382 136.711 47.6115C138.191 47.2715 139.274 46.5315 139.958 45.3915C140.215 44.9648 140.389 44.5248 140.481 44.0715C140.494 44.0115 140.504 43.9482 140.511 43.8815C140.557 43.6148 140.573 43.3448 140.56 43.0715H140.55C140.537 42.7515 140.488 42.4248 140.402 42.0915C140.126 41.0115 139.501 40.0982 138.527 39.3515C138.145 39.0582 137.681 38.7682 137.135 38.4815C136.918 38.3682 136.674 38.2482 136.405 38.1215L136.039 37.9515L135.674 37.7815L135.072 37.5015C133.506 36.7682 132.545 36.0382 132.19 35.3115C132.058 35.0515 132.005 34.7915 132.032 34.5315C132.045 34.4382 132.068 34.3415 132.101 34.2415L132.14 34.1315L132.18 34.0315C132.358 33.5982 132.644 33.2615 133.039 33.0215C133.341 32.8348 133.693 32.7082 134.095 32.6415C134.74 32.5282 135.398 32.5782 136.069 32.7915C136.747 33.0048 137.28 33.3315 137.668 33.7715L138.981 32.5815C138.382 31.9148 137.605 31.4248 136.651 31.1115C135.704 30.7982 134.753 30.7248 133.799 30.8915C132.213 31.1582 131.134 31.9715 130.561 33.3315C129.62 35.5715 130.877 37.4982 134.332 39.1115C134.608 39.2448 134.812 39.3415 134.944 39.4015C136.102 39.9282 136.901 40.3515 137.342 40.6715C138.06 41.1915 138.514 41.8148 138.704 42.5415C138.843 43.0882 138.823 43.5982 138.645 44.0715C138.599 44.2048 138.537 44.3382 138.458 44.4715C138.023 45.1848 137.309 45.6548 136.316 45.8815C135.315 46.1148 134.338 46.0682 133.384 45.7415C132.423 45.4215 131.598 44.8582 130.907 44.0515L129.574 45.2115C131.068 46.9382 132.904 47.8015 135.082 47.8015ZM110.5 47.3215V31.2615H108.743V44.6215L98.0432 31.2515H96V47.3115H97.757V33.7415L108.634 47.3215H110.5ZM114.49 47.3215L116.089 43.5715H124.449L126.038 47.3215H127.963L121.133 31.2715H119.445L112.555 47.3215H114.49ZM116.859 41.7915H123.699L120.284 33.7815L116.859 41.7915ZM144.935 39.4115V47.3215H143.178V31.2715H144.935V37.6315H154.618V31.2715H156.375V47.3215H154.618V39.4115H144.935ZM172.27 47.7915C173.192 47.7915 174.031 47.6882 174.787 47.4815C175.478 47.2948 176.166 47.0115 176.85 46.6315V44.5415C175.429 45.5282 173.902 46.0215 172.27 46.0215C170.402 46.0215 168.803 45.3648 167.473 44.0515C166.144 42.7382 165.479 41.1548 165.479 39.3015C165.479 37.4482 166.144 35.8648 167.473 34.5515C168.803 33.2382 170.402 32.5815 172.27 32.5815C173.902 32.5815 175.429 33.0748 176.85 34.0615V31.9715C176.166 31.5915 175.478 31.3082 174.787 31.1215C174.031 30.9148 173.192 30.8115 172.27 30.8115C169.915 30.8115 167.901 31.6415 166.23 33.3015C165.44 34.0815 164.828 34.9815 164.394 36.0015C163.946 37.0548 163.722 38.1548 163.722 39.3015C163.722 40.4482 163.946 41.5482 164.394 42.6015C164.828 43.6148 165.44 44.5148 166.23 45.3015C167.019 46.0882 167.927 46.6948 168.954 47.1215C170.007 47.5682 171.112 47.7915 172.27 47.7915ZM187.572 46.0015C185.723 46.0015 184.144 45.3448 182.834 44.0315C181.518 42.7248 180.86 41.1448 180.86 39.2915C180.86 37.4448 181.518 35.8648 182.834 34.5515C184.144 33.2448 185.723 32.5915 187.572 32.5915C189.421 32.5915 191 33.2448 192.31 34.5515C193.619 35.8648 194.274 37.4448 194.274 39.2915C194.274 41.1448 193.619 42.7248 192.31 44.0315C191 45.3448 189.421 46.0015 187.572 46.0015ZM200.09 34.0415V47.3215H198.333V31.2515H200.337L206.545 40.4715L212.764 31.2515H214.768V47.3215H213.011V34.0415L206.545 43.6315L200.09 34.0415ZM220.524 47.3215V41.7015H224.087C225.64 41.7015 226.966 41.1915 228.065 40.1715C229.164 39.1582 229.714 37.9315 229.714 36.4915C229.714 35.0515 229.164 33.8215 228.065 32.8015C226.966 31.7815 225.64 31.2715 224.087 31.2715H218.767V47.3215H220.524ZM220.524 39.9215H224.087C225.153 39.9215 226.065 39.5848 226.822 38.9115C227.578 38.2448 227.957 37.4382 227.957 36.4915C227.957 35.5448 227.578 34.7348 226.822 34.0615C226.065 33.3948 225.153 33.0615 224.087 33.0615H220.524V39.9215ZM230.663 47.3215L232.262 43.5715H240.623L242.212 47.3215H244.137L237.306 31.2715H235.618L228.729 47.3215H230.663ZM233.032 41.7915H239.873L236.457 33.7815L233.032 41.7915ZM260.692 31.2615H258.935V44.6215L248.235 31.2515H246.192V47.3115H247.949V33.7415L258.826 47.3215H260.692V31.2615ZM270.643 40.2115V47.3215H268.886V40.2615L262.53 31.2915L264.721 31.2815L269.755 38.4115L274.799 31.2815H277L270.643 40.2115Z" fill="white"/>
<defs>
<linearGradient id="paint0_linear" x1="26.5323" y1="58.0177" x2="-0.233743" y2="19.9694" gradientUnits="userSpaceOnUse">
<stop stop-color="#C900FF"/>
<stop offset="1" stop-color="#3B1CFF"/>
</linearGradient>
<linearGradient id="paint1_linear" x1="11.1756" y1="106.099" x2="-31.1604" y2="40.8881" gradientUnits="userSpaceOnUse">
<stop stop-color="#0080FF"/>
<stop offset="1" stop-color="#3B1CFF"/>
</linearGradient>
<linearGradient id="paint2_linear" x1="-6.16947" y1="143.384" x2="-63.5921" y2="74.9206" gradientUnits="userSpaceOnUse">
<stop stop-color="#0080FF"/>
<stop offset="1" stop-color="#3B1CFF"/>
</linearGradient>
</defs>
</svg>
