<svg width="201" height="56" viewBox="0 0 201 56" fill="none" xmlns="http://www.w3.org/2000/svg">
<path fill-rule="evenodd" clip-rule="evenodd" d="M27.5966 -1.90735e-06L21.7969 6.80542C21.7969 6.80542 27.5479 11.2067 32.093 13.4423C36.638 15.6778 45.7333 18.5788 45.7333 18.5788L27.5966 -1.90735e-06Z" fill="url(#paint0_linear)"/>
<path fill-rule="evenodd" clip-rule="evenodd" d="M19.1696 8.39647L12.6724 15.8602C12.6724 15.8602 20.6711 23.8666 26.3287 27.9512C31.9863 32.0359 44.2734 38.6753 44.2734 38.6753L54.9435 27.506L52.0263 23.8429C52.0263 23.8429 40.1647 20.6431 34.6539 18.0524C29.1431 15.4617 19.1696 8.39647 19.1696 8.39647Z" fill="url(#paint1_linear)"/>
<path fill-rule="evenodd" clip-rule="evenodd" d="M9.61872 17.7603L0 27.8312L27.3502 55.8556L41.1659 42.2693C41.1659 42.2693 29.5997 35.7251 23.8531 31.2606C18.1066 26.7961 9.61872 17.7603 9.61872 17.7603Z" fill="url(#paint2_linear)"/>
<path fill-rule="evenodd" clip-rule="evenodd" d="M140.605 33.2353C139.405 34.4071 137.962 34.9929 136.276 34.9929C135.447 34.9929 134.652 34.8353 133.89 34.52C133.156 34.2188 132.509 33.7906 131.947 33.2353C131.38 32.68 130.942 32.0447 130.632 31.3294C130.308 30.5859 130.146 29.8071 130.146 28.9929C130.146 28.1835 130.308 27.4071 130.632 26.6635C130.942 25.9435 131.38 25.3082 131.947 24.7576C133.142 23.5859 134.585 23 136.276 23C137.105 23 137.897 23.1553 138.655 23.4659C139.388 23.7718 140.038 24.2024 140.605 24.7576C141.172 25.3082 141.61 25.9435 141.92 26.6635C142.239 27.4071 142.398 28.1835 142.398 28.9929C142.398 29.8071 142.239 30.5859 141.92 31.3294C141.61 32.0447 141.172 32.68 140.605 33.2353ZM98.2858 35C98.6811 35 99.074 34.9553 99.4645 34.8659C100.536 34.6259 101.32 34.1035 101.815 33.2988C102.001 32.9976 102.127 32.6871 102.194 32.3671C102.203 32.3247 102.21 32.28 102.215 32.2329C102.248 32.0447 102.26 31.8541 102.251 31.6612H102.244C102.234 31.4353 102.198 31.2047 102.136 30.9694C101.936 30.2071 101.484 29.5624 100.779 29.0353C100.503 28.8282 100.167 28.6235 99.7717 28.4212C99.6145 28.3412 99.4383 28.2565 99.2431 28.1671L98.9787 28.0471L98.7144 27.9271L98.2786 27.7294C97.1451 27.2118 96.4498 26.6965 96.1926 26.1835C96.0973 26 96.0592 25.8165 96.0783 25.6329C96.0878 25.5671 96.1045 25.4988 96.1283 25.4282L96.1569 25.3506L96.1854 25.28C96.314 24.9741 96.5212 24.7365 96.807 24.5671C97.026 24.4353 97.2808 24.3459 97.5714 24.2988C98.0381 24.2188 98.5144 24.2541 99.0002 24.4047C99.4907 24.5553 99.8765 24.7859 100.157 25.0965L101.108 24.2565C100.674 23.7859 100.112 23.44 99.4217 23.2188C98.7358 22.9976 98.0476 22.9459 97.3571 23.0635C96.2093 23.2518 95.4282 23.8259 95.0138 24.7859C94.3328 26.3671 95.2424 27.7271 97.7428 28.8659C97.9429 28.96 98.0905 29.0282 98.1858 29.0706C99.024 29.4424 99.6026 29.7412 99.9217 29.9671C100.441 30.3341 100.769 30.7741 100.908 31.2871C101.008 31.6729 100.993 32.0329 100.865 32.3671C100.831 32.4612 100.786 32.5553 100.729 32.6494C100.415 33.1529 99.8979 33.4847 99.1788 33.6447C98.4548 33.8094 97.7476 33.7765 97.057 33.5459C96.3617 33.32 95.7639 32.9224 95.2639 32.3529L94.2994 33.1718C95.3806 34.3906 96.7093 35 98.2858 35ZM80.4945 34.6612V23.3247H79.2229V32.7553L71.4788 23.3176H70V34.6541H71.2716V25.0753L79.1443 34.6612H80.4945ZM83.3821 34.6612L84.5394 32.0141H90.5903L91.7405 34.6612H93.1336L88.1899 23.3318H86.9683L81.9818 34.6612H83.3821ZM85.0966 30.7576H90.0474L87.5756 25.1035L85.0966 30.7576ZM105.417 29.0776V34.6612H104.145V23.3318H105.417V27.8212H112.425V23.3318H113.697V34.6612H112.425V29.0776H105.417ZM125.201 34.9929C125.868 34.9929 126.475 34.92 127.023 34.7741C127.523 34.6424 128.021 34.4424 128.516 34.1741V32.6988C127.487 33.3953 126.382 33.7435 125.201 33.7435C123.849 33.7435 122.691 33.28 121.729 32.3529C120.767 31.4259 120.286 30.3082 120.286 29C120.286 27.6918 120.767 26.5741 121.729 25.6471C122.691 24.72 123.849 24.2565 125.201 24.2565C126.382 24.2565 127.487 24.6047 128.516 25.3012V23.8259C128.021 23.5576 127.523 23.3576 127.023 23.2259C126.475 23.08 125.868 23.0071 125.201 23.0071C123.496 23.0071 122.039 23.5929 120.829 24.7647C120.258 25.3153 119.815 25.9506 119.5 26.6706C119.177 27.4141 119.015 28.1906 119.015 29C119.015 29.8094 119.177 30.5859 119.5 31.3294C119.815 32.0447 120.258 32.68 120.829 33.2353C121.401 33.7906 122.058 34.2188 122.801 34.52C123.563 34.8353 124.363 34.9929 125.201 34.9929ZM136.276 33.7294C134.938 33.7294 133.794 33.2659 132.847 32.3388C131.894 31.4165 131.418 30.3012 131.418 28.9929C131.418 27.6894 131.894 26.5741 132.847 25.6471C133.794 24.7247 134.938 24.2635 136.276 24.2635C137.614 24.2635 138.757 24.7247 139.705 25.6471C140.653 26.5741 141.127 27.6894 141.127 28.9929C141.127 30.3012 140.653 31.4165 139.705 32.3388C138.757 33.2659 137.614 33.7294 136.276 33.7294ZM145.336 25.2871V34.6612H144.064V23.3176H145.514L150.008 29.8259L154.509 23.3176H155.959V34.6612H154.687V25.2871L150.008 32.0565L145.336 25.2871ZM160.125 34.6612V30.6941H162.704C163.828 30.6941 164.788 30.3341 165.583 29.6141C166.379 28.8988 166.776 28.0329 166.776 27.0165C166.776 26 166.379 25.1318 165.583 24.4118C164.788 23.6918 163.828 23.3318 162.704 23.3318H158.854V34.6612H160.125ZM160.125 29.4376H162.704C163.476 29.4376 164.135 29.2 164.683 28.7247C165.231 28.2541 165.505 27.6847 165.505 27.0165C165.505 26.3482 165.231 25.7765 164.683 25.3012C164.135 24.8306 163.476 24.5953 162.704 24.5953H160.125V29.4376ZM167.463 34.6612L168.621 32.0141H174.672L175.822 34.6612H177.215L172.271 23.3318H171.05L166.063 34.6612H167.463ZM169.178 30.7576H174.129L171.657 25.1035L169.178 30.7576ZM189.197 23.3247H187.925V32.7553L180.181 23.3176H178.702V34.6541H179.974V25.0753L187.847 34.6612H189.197V23.3247ZM196.399 29.6424V34.6612H195.128V29.6776L190.527 23.3459L192.113 23.3388L195.756 28.3718L199.407 23.3388H201L196.399 29.6424Z" fill="#282626"/>
<defs>
<linearGradient id="paint0_linear" x1="19.2008" y1="42.1947" x2="-0.297783" y2="14.6139" gradientUnits="userSpaceOnUse">
<stop stop-color="#C900FF"/>
<stop offset="1" stop-color="#3B1CFF"/>
</linearGradient>
<linearGradient id="paint1_linear" x1="8.08775" y1="77.1633" x2="-22.7638" y2="29.8763" gradientUnits="userSpaceOnUse">
<stop stop-color="#0080FF"/>
<stop offset="1" stop-color="#3B1CFF"/>
</linearGradient>
<linearGradient id="paint2_linear" x1="-4.46475" y1="104.279" x2="-46.2621" y2="54.6912" gradientUnits="userSpaceOnUse">
<stop stop-color="#0080FF"/>
<stop offset="1" stop-color="#3B1CFF"/>
</linearGradient>
</defs>
</svg>
