<svg width="463" height="468" viewBox="0 0 463 468" fill="none" xmlns="http://www.w3.org/2000/svg">
<path fill-rule="evenodd" clip-rule="evenodd" d="M0 235.152L81.4107 319.657C81.4107 319.657 153.25 243.838 201.888 206.377C250.525 168.915 348.419 114.002 348.419 114.002L231.486 0L0 235.152ZM161.537 398.306L106.786 335.923C106.786 335.923 174.191 269.003 221.867 234.862C269.543 200.722 373.085 145.228 373.085 145.228L463 238.584L438.417 269.201C438.417 269.201 338.461 295.946 292.022 317.599C245.583 339.253 161.537 398.306 161.537 398.306ZM233.164 468L184.343 411.095C184.343 411.095 232.753 374.292 271.012 355.599C309.272 336.906 385.833 312.649 385.833 312.649L233.164 468Z" fill="#F1F7F9"/>
</svg>
