<svg width="18" height="18" viewBox="0 0 18 18" fill="none" xmlns="http://www.w3.org/2000/svg">
<path fill-rule="evenodd" clip-rule="evenodd" d="M3.10505 0.472536C3.67683 0.250056 4.33155 0.098136 5.28969 0.054504C6.24985 0.010152 6.55687 0 9.00108 0C11.4453 0 11.7521 0.010872 12.7117 0.054504C13.6692 0.097416 14.3235 0.250056 14.8964 0.472536C15.4875 0.702288 15.9899 1.00973 16.49 1.51063C16.9902 2.01154 17.2978 2.51316 17.5282 3.10493C17.7507 3.67668 17.9026 4.3313 17.9462 5.28948C17.9898 6.2491 18 6.55589 18 9C18 11.4441 17.9898 11.7502 17.9462 12.7105C17.9033 13.6686 17.7507 14.323 17.5282 14.8951C17.2978 15.4868 16.991 15.9893 16.49 16.4894C15.9891 16.9895 15.4875 17.2971 14.8957 17.5275C14.3235 17.7499 13.6692 17.9019 12.711 17.9455C11.7514 17.9898 11.4446 18 9.00036 18C6.55615 18 6.24985 17.9891 5.28969 17.9455C4.33155 17.9019 3.67791 17.7499 3.10505 17.5275C2.5129 17.2971 2.01154 16.9893 1.51069 16.4894C1.00984 15.9895 0.702316 15.4868 0.472555 14.8951C0.250066 14.323 0.0981399 13.6687 0.0545062 12.7105C0.0101524 11.7509 0 11.4441 0 9C0 6.55589 0.0101524 6.2491 0.0545062 5.28948C0.0981399 4.33138 0.250066 3.67704 0.472555 3.10493C0.702316 2.5128 1.00977 2.01074 1.51069 1.51063C2.01162 1.01052 2.5129 0.702288 3.10505 0.472536ZM5.40906 16.234C4.5426 16.1946 4.07165 16.0502 3.75868 15.9283C3.34376 15.7668 3.04771 15.5744 2.73645 15.2636C2.42519 14.9527 2.23251 14.657 2.07169 14.2421C1.94969 13.9293 1.80536 13.4582 1.76597 12.5917C1.72289 11.655 1.71429 11.3736 1.71429 9.00036C1.71429 6.62712 1.7236 6.34651 1.76597 5.40897C1.80543 4.54253 1.95083 4.07238 2.07169 3.75863C2.23322 3.34372 2.42561 3.04768 2.73645 2.73642C3.04729 2.42517 3.34305 2.2325 3.75868 2.07168C4.07151 1.94968 4.5426 1.80536 5.40906 1.76597C6.34584 1.72289 6.62724 1.71429 8.99947 1.71429C11.3717 1.71429 11.6534 1.7236 12.5909 1.76597C13.4574 1.80543 13.9276 1.95082 14.2413 2.07168C14.6562 2.2325 14.9523 2.4256 15.2636 2.73642C15.5748 3.04725 15.7668 3.34372 15.9283 3.75863C16.0503 4.07145 16.1946 4.54253 16.234 5.40897C16.2771 6.34651 16.2857 6.62712 16.2857 9.00036C16.2857 11.3736 16.2771 11.6542 16.234 12.5917C16.1946 13.4582 16.0495 13.9291 15.9283 14.2421C15.7668 14.657 15.5744 14.953 15.2636 15.2636C14.9527 15.5741 14.6562 15.7668 14.2413 15.9283C13.9285 16.0503 13.4574 16.1946 12.5909 16.234C11.6542 16.2771 11.3728 16.2857 8.99947 16.2857C6.62617 16.2857 6.34555 16.2771 5.40906 16.234ZM14.1423 6C13.4323 5.99972 12.8569 5.42385 12.8571 4.71377C12.8578 4.00403 13.4331 3.4289 14.1429 3.42857H14.1434C14.8535 3.42886 15.4289 4.00472 15.4286 4.7148C15.4283 5.42488 14.8524 6.00028 14.1423 6ZM4.28571 9C4.28571 11.6037 6.39629 13.7143 9 13.7143C11.6037 13.7143 13.7143 11.6037 13.7143 9C13.7143 6.39629 11.6037 4.28571 9 4.28571C6.39629 4.28571 4.28571 6.39629 4.28571 9ZM6 9C6 7.34334 7.34278 6 8.99964 6C10.6565 6 12 7.34334 12 9C12 10.6567 10.6565 12 8.99964 12C7.34278 12 6 10.6567 6 9Z" fill="#155BFF"/>
</svg>
