<svg width="62" height="62" viewBox="0 0 62 62" fill="none" xmlns="http://www.w3.org/2000/svg">
<circle cx="31" cy="31" r="30" stroke="#979797" stroke-dasharray="5"/>
<path d="M15.4975 40.5559C15.4975 40.5559 14.5281 35.283 18.4806 35.283C22.4332 35.283 22.6118 39.1214 22.4332 40.5559C22.2545 41.9904 21.1189 44.5588 17.5375 44.5588C13.9561 44.5588 10.6987 40.9311 10.6987 38.107C10.6987 35.283 11.3014 30.406 17.5375 30.406C23.7736 30.406 38.3892 29.6125 44.6723 30.406C50.9555 31.1996 51.8238 38.107 51.8238 38.107C51.8238 38.107 51.4987 44.5588 46.3571 44.5588C41.2155 44.5588 40.2063 41.1606 40.2063 39.247C40.2063 37.3335 41.3386 34.7325 44.6723 35.283C48.006 35.8334 47.1762 40.5559 47.1762 40.5559" stroke="#979797"/>
<path d="M22.2544 37.3061H40.4722" stroke="#979797"/>
<path d="M43.7851 57.3333V44.5588" stroke="#979797"/>
<path d="M38.3974 57.3333V46.9124" stroke="#979797"/>
<path d="M31.3637 57.3332V42.8683" stroke="#979797"/>
<path d="M24.313 57.3333V46.9124" stroke="#979797"/>
<path d="M18.2549 57.7049V44.5588" stroke="#979797"/>
<path fill-rule="evenodd" clip-rule="evenodd" d="M31.3637 20.1306L24.3131 25.0905L26.1639 16.7887L19.7163 11.9679L28.2322 11.3829L31.3637 3.78271L34.4077 11.3829L42.361 11.9679L36.4011 17.1778C36.4011 17.1778 38.3974 25.0905 38.3974 25.0905C38.3974 25.0905 31.3637 20.1306 31.3637 20.1306Z" stroke="#979797"/>
</svg>
