<svg width="60" height="59" viewBox="0 0 60 59" fill="none" xmlns="http://www.w3.org/2000/svg">
<path d="M0 57.616H59.0824" stroke="#979797"/>
<path d="M33.0664 54.4202V51.3332C33.0664 51.3332 33.0664 49.9757 33.8112 49.9757C34.556 49.9757 54.499 49.9757 55.5295 49.9757C56.56 49.9757 56.56 51.3332 56.56 51.3332V54.4202" stroke="#979797"/>
<path d="M35.1318 49.9757V45.9752C35.1318 45.9752 35.1318 44.9851 35.9082 44.9851C36.6846 44.9851 52.8936 44.9851 53.7948 44.9851C54.696 44.9851 54.696 45.9752 54.696 45.9752V49.9757" stroke="#979797"/>
<path fill-rule="evenodd" clip-rule="evenodd" d="M7.64107 42.221L13.317 48.2879L9.4534 52.1979L4.2085 46.4111L7.64107 42.221Z" stroke="#979797"/>
<path d="M8.7627 43.4786L32.2919 19.8315" stroke="#979797"/>
<path d="M12.21 47.2095L35.7736 23.676" stroke="#979797"/>
<path fill-rule="evenodd" clip-rule="evenodd" d="M29.0371 16.4613L39.4321 26.989L48.904 17.4978L38.1431 7.18842L29.0371 16.4613Z" stroke="#979797"/>
<path d="M23.9922 28.0762L27.2585 31.6551" stroke="#979797"/>
<path d="M27.2583 24.5316L30.927 28.4815" stroke="#979797"/>
<path d="M30.9272 35.4427H35.774" stroke="#979797"/>
<path d="M32.292 42.6094L36.486 39.6623" stroke="#979797"/>
<path d="M59.868 35.4427H54.6963" stroke="#979797"/>
<path d="M58.3055 42.6094L53.7627 39.6623" stroke="#979797"/>
<path d="M58.3055 28.0762L53.7627 31.6551" stroke="#979797"/>
<path d="M39.4325 26.989L38.2393 28.9263L41.5042 32.761L44.8132 31.6551L54.6963 21.4063V18.4203L51.4336 15.788L48.9043 17.4978" stroke="#979797"/>
<path d="M38.2389 7.18841L39.5438 4.07046L36.4859 1H34.0522L23.3421 12.1821L22.7788 15.2393L25.625 17.821L29.0371 16.4613" stroke="#979797"/>
</svg>
