<svg width="40" height="51" viewBox="0 0 40 51" fill="none" xmlns="http://www.w3.org/2000/svg">
<path d="M34.4648 47.1061H38.8568V1C38.8568 1 6.50193 1 4.01507 1C1.52822 1 1 4.65543 1 4.65543V42.5831C1 42.5831 1.08054 47.1061 4.01507 47.1061C6.94961 47.1061 10.66 47.1061 10.66 47.1061" stroke="#979797"/>
<path d="M14.395 50.9655V42.0747H31.0205V50.9655" stroke="#979797"/>
<path d="M28.3343 42.0747V38.3026L31.0209 36.0272V14.2113C31.0209 14.2113 30.6068 12.1778 28.848 12.1778C27.0893 12.1778 26.8641 13.4825 26.8641 13.4825V9.73098C26.8641 9.73098 26.4172 8.00426 24.6341 8.00426C22.851 8.00426 22.7081 9.38623 22.7081 9.38623C22.7081 9.38623 22.6386 6.40167 20.6513 6.40167C18.664 6.40167 18.4055 8.00426 18.4055 8.00426V10.8134C18.4055 10.8134 18.4055 9.38623 16.4895 9.38623C14.5735 9.38623 14.3954 10.8134 14.3954 10.8134C14.3954 10.8134 14.3954 28.4612 14.3954 24.6652C14.3954 22.0259 10.2817 22.0259 10.2817 22.0259V31.3742L17.9684 38.3026" stroke="#979797"/>
<path d="M1 41.6533C1 41.6533 1.75508 37.2523 5.17204 37.2523C8.589 37.2523 16.6044 37.2523 16.6044 37.2523" stroke="#979797"/>
<path d="M29.582 37.2523H38.8567" stroke="#979797"/>
<path d="M34.2192 42.0748H38.8566" stroke="#979797"/>
<path d="M5.58837 37.2523V1" stroke="#979797"/>
<path d="M18.4053 10.8134V21.6526" stroke="#979797"/>
<path d="M22.708 9.38623V21.6526" stroke="#979797"/>
<path d="M26.8638 13.4825V21.6526" stroke="#979797"/>
</svg>
