<svg width="51" height="59" viewBox="0 0 51 59" fill="none" xmlns="http://www.w3.org/2000/svg">
<g opacity="0.9">
<path fill-rule="evenodd" clip-rule="evenodd" d="M1 1H50V37.586C50 37.586 46.0186 57.7986 25.5 57.7986C4.98135 57.7986 1 37.586 1 37.586V1Z" stroke="#979797"/>
<path fill-rule="evenodd" clip-rule="evenodd" d="M9.30078 10.3428H41.9674V34.763C41.9674 34.763 39.3132 48.2544 25.6341 48.2544C11.955 48.2544 9.30078 34.763 9.30078 34.763V10.3428Z" stroke="#979797"/>
<path d="M15.4775 45.8156L25.2325 40.9192L34.7531 45.8156" stroke="#979797"/>
<path d="M14.5439 18.87L21.3687 21.6672L18.4102 32.7891L25.1152 37.7357L31.6283 32.7891L28.6756 21.6672L35.8925 18.87" stroke="#979797"/>
<path d="M18.4102 32.7891H31.6282" stroke="#979797"/>
<path d="M25.0191 40.9192V37.7357" stroke="#979797"/>
<path d="M29.4947 37.7357V39.3275" stroke="#979797"/>
<path d="M35.0055 39.4419V41.0336" stroke="#979797"/>
<path d="M32.5958 36.2605V37.8522" stroke="#979797"/>
<path d="M20.2789 37.8512V39.4429" stroke="#979797"/>
<path d="M17.6012 36.2605V37.8522" stroke="#979797"/>
<path d="M15.1915 39.4419V41.0336" stroke="#979797"/>
<path d="M26.0709 52.3821V57.7986" stroke="#979797"/>
<path d="M26.0709 1V6.4165" stroke="#979797"/>
<path d="M50 32.7891H45.2661" stroke="#979797"/>
<path d="M5.73391 32.7891H1" stroke="#979797"/>
<path d="M43.4787 51.0748L38.8525 47.3368" stroke="#979797"/>
<path d="M6.94678 51.0748L12.6236 47.3368" stroke="#979797"/>
<path d="M50 12.9366L45.2661 15.2815" stroke="#979797"/>
<path d="M1 12.9366L6.56464 15.2815" stroke="#979797"/>
</g>
</svg>
