<svg width="48" height="55" viewBox="0 0 48 55" fill="none" xmlns="http://www.w3.org/2000/svg">
<path d="M0.891113 19.2432V7.64581L23.4855 1L46.8926 7.64581C46.8926 7.64581 46.8926 18.9972 46.8926 32.4074C46.8926 45.8176 24.287 53.9142 24.287 53.9142C24.287 53.9142 0.891113 46.8766 0.891113 32.4074C0.891113 28.9107 0.891113 28.9107 0.891113 28.9107" stroke="#979797"/>
<path d="M5.64453 18.7878V11.9619L23.5707 6.67676L42.1417 11.9619C42.1417 11.9619 42.1417 21.2555 42.1417 31.92C42.1417 42.5846 24.2066 49.0235 24.2066 49.0235C24.2066 49.0235 5.64453 43.4268 5.64453 31.92C5.64453 29.1393 5.64453 29.1393 5.64453 29.1393" stroke="#979797"/>
<path d="M0.891113 28.9108H18.2376" stroke="#979797"/>
<path d="M0 24.1313H18.2378" stroke="#979797"/>
<path d="M18.2377 20.3273V32.8662" stroke="#979797"/>
<rect x="15.6226" y="13.8677" width="16.8045" height="6.39196" rx="2" stroke="#979797"/>
<rect x="15.6226" y="32.7772" width="16.8045" height="6.39196" rx="2" stroke="#979797"/>
<path d="M29.6484 32.7772V20.3273" stroke="#979797"/>
<path d="M24.287 24.1313V28.9108" stroke="#979797"/>
</svg>
