<svg width="67" height="60" viewBox="0 0 67 60" fill="none" xmlns="http://www.w3.org/2000/svg">
<path d="M29.3828 53.0355C29.3828 53.0355 9.55272 42.6016 9.12814 30.3448C8.70357 18.088 17.1875 9.0058 17.1875 9.0058" stroke="#979797"/>
<path d="M37.3599 53.0355C37.3599 53.0355 57.19 42.6016 57.6145 30.3448C58.0391 18.088 49.5552 9.0058 49.5552 9.0058" stroke="#979797"/>
<path fill-rule="evenodd" clip-rule="evenodd" d="M41.9865 1.0051C41.9865 1.0051 45.802 0.908841 47.6405 2.62919C49.479 4.34954 49.5552 9.00581 49.5552 9.00581C49.5552 9.00581 45.7564 8.932 43.8714 6.77423C41.9865 4.61645 41.9865 1.0051 41.9865 1.0051Z" stroke="#979797"/>
<path fill-rule="evenodd" clip-rule="evenodd" d="M55.3851 4.98215C55.3851 4.98215 58.0085 7.80182 57.9817 10.3427C57.955 12.8835 54.604 16.0567 54.604 16.0567C54.604 16.0567 52.1161 13.1359 52.4313 10.2673C52.7465 7.39862 55.3851 4.98215 55.3851 4.98215Z" stroke="#979797"/>
<path fill-rule="evenodd" clip-rule="evenodd" d="M64.1952 18.1112C64.1952 18.1112 64.8856 21.9293 63.5026 24.0454C62.1197 26.1615 57.6102 26.9665 57.6102 26.9665C57.6102 26.9665 57.0876 23.1386 58.888 20.9074C60.6884 18.6762 64.1952 18.1112 64.1952 18.1112Z" stroke="#979797"/>
<path fill-rule="evenodd" clip-rule="evenodd" d="M65.5977 33.5115C65.5977 33.5115 64.3816 37.1913 62.1635 38.3601C59.9453 39.529 55.6175 38.0093 55.6175 38.0093C55.6175 38.0093 56.985 34.4036 59.6231 33.34C62.2613 32.2764 65.5977 33.5115 65.5977 33.5115Z" stroke="#979797"/>
<path fill-rule="evenodd" clip-rule="evenodd" d="M59.5659 45.9871C59.5659 45.9871 56.9835 48.8456 54.4897 48.9957C51.9959 49.1459 48.65 45.9671 48.65 45.9671C48.65 45.9671 51.3411 43.2389 54.1765 43.3587C57.0119 43.4784 59.5659 45.9871 59.5659 45.9871Z" stroke="#979797"/>
<path fill-rule="evenodd" clip-rule="evenodd" d="M50.1372 55.2145C50.1372 55.2145 46.8127 57.1215 44.3954 56.4804C41.978 55.8394 39.7616 51.7645 39.7616 51.7645C39.7616 51.7645 43.1498 50.0157 45.8101 51.0208C48.4703 52.0259 50.1372 55.2145 50.1372 55.2145Z" stroke="#979797"/>
<path fill-rule="evenodd" clip-rule="evenodd" d="M24.7562 1.0051C24.7562 1.0051 20.9407 0.908841 19.1022 2.62919C17.2637 4.34954 17.1875 9.00581 17.1875 9.00581C17.1875 9.00581 20.9863 8.932 22.8712 6.77423C24.7562 4.61645 24.7562 1.0051 24.7562 1.0051Z" stroke="#979797"/>
<path fill-rule="evenodd" clip-rule="evenodd" d="M11.3581 4.98215C11.3581 4.98215 8.7347 7.80182 8.76143 10.3427C8.78815 12.8835 12.1392 16.0567 12.1392 16.0567C12.1392 16.0567 14.6271 13.1359 14.3119 10.2673C13.9967 7.39862 11.3581 4.98215 11.3581 4.98215Z" stroke="#979797"/>
<path fill-rule="evenodd" clip-rule="evenodd" d="M2.54745 18.1112C2.54745 18.1112 1.8571 21.9293 3.24003 24.0454C4.62297 26.1615 9.1325 26.9665 9.1325 26.9665C9.1325 26.9665 9.65509 23.1386 7.85467 20.9074C6.05424 18.6762 2.54745 18.1112 2.54745 18.1112Z" stroke="#979797"/>
<path fill-rule="evenodd" clip-rule="evenodd" d="M1.14546 33.5115C1.14546 33.5115 2.36151 37.1913 4.57968 38.3601C6.79785 39.529 11.1256 38.0093 11.1256 38.0093C11.1256 38.0093 9.75819 34.4036 7.12002 33.34C4.48184 32.2764 1.14546 33.5115 1.14546 33.5115Z" stroke="#979797"/>
<path fill-rule="evenodd" clip-rule="evenodd" d="M7.17674 45.9871C7.17674 45.9871 9.75914 48.8456 12.2529 48.9957C14.7467 49.1459 18.0927 45.9671 18.0927 45.9671C18.0927 45.9671 15.4016 43.2389 12.5662 43.3587C9.73075 43.4784 7.17674 45.9871 7.17674 45.9871Z" stroke="#979797"/>
<path fill-rule="evenodd" clip-rule="evenodd" d="M16.6055 55.2145C16.6055 55.2145 19.9299 57.1215 22.3473 56.4804C24.7647 55.8394 26.9811 51.7645 26.9811 51.7645C26.9811 51.7645 23.5929 50.0157 20.9326 51.0208C18.2723 52.0259 16.6055 55.2145 16.6055 55.2145Z" stroke="#979797"/>
<ellipse cx="33.5001" cy="28.1545" rx="17.94" ry="18.1909" stroke="#979797"/>
<path d="M16.2461 22.682H50.2909" stroke="#979797"/>
<path d="M50.291 34.938H17.0796" stroke="#979797"/>
<path d="M33.6853 46.3454V9.96362" stroke="#979797"/>
<path d="M33.6851 9.96362C33.6851 9.96362 43.8202 17.484 43.8202 28.1545C43.8202 38.8251 34.28 46.3454 34.28 46.3454" stroke="#979797"/>
<path d="M33.4998 46.3454C33.4998 46.3454 23.2983 39.8091 23.2983 29.4727C23.2983 19.1363 33.4998 9.96362 33.4998 9.96362" stroke="#979797"/>
</svg>
