<svg width="277" height="279" viewBox="0 0 277 279" fill="none" xmlns="http://www.w3.org/2000/svg">
<path fill-rule="evenodd" clip-rule="evenodd" d="M139.076 0L110 34.0659C110 34.0659 138.831 56.0976 161.617 67.288C184.403 78.4785 230 93 230 93L139.076 0Z" fill="url(#paint0_linear)"/>
<path fill-rule="evenodd" clip-rule="evenodd" d="M97.585 43L65 80.2214C65 80.2214 105.116 120.149 133.49 140.519C161.864 160.889 223.487 194 223.487 194L277 138.299L262.369 120.031C262.369 120.031 202.881 104.074 175.243 91.1539C147.605 78.2341 97.585 43 97.585 43Z" fill="url(#paint1_linear)"/>
<path fill-rule="evenodd" clip-rule="evenodd" d="M48.6008 89L0 139.229L138.193 279L208 211.239C208 211.239 149.559 178.599 120.523 156.332C91.4875 134.066 48.6008 89 48.6008 89Z" fill="url(#paint2_linear)"/>
<defs>
<linearGradient id="paint0_linear" x1="96.9851" y1="211.214" x2="-0.569727" y2="73.0141" gradientUnits="userSpaceOnUse">
<stop stop-color="#C900FF"/>
<stop offset="1" stop-color="#3B1CFF"/>
</linearGradient>
<linearGradient id="paint1_linear" x1="42.007" y1="385.939" x2="-111.497" y2="149.325" gradientUnits="userSpaceOnUse">
<stop stop-color="#0080FF"/>
<stop offset="1" stop-color="#3B1CFF"/>
</linearGradient>
<linearGradient id="paint2_linear" x1="-22.5592" y1="520.513" x2="-230.548" y2="270.529" gradientUnits="userSpaceOnUse">
<stop stop-color="#0080FF"/>
<stop offset="1" stop-color="#3B1CFF"/>
</linearGradient>
</defs>
</svg>
