<svg width="53" height="52" viewBox="0 0 53 52" fill="none" xmlns="http://www.w3.org/2000/svg">
<rect x="1" y="1" width="28.6804" height="37.8947" stroke="#979797"/>
<path d="M1 34.6071H29.6804" stroke="#979797"/>
<rect x="5.55664" y="7.05261" width="19.299" height="4.21053" stroke="#979797"/>
<path d="M4.56104 16.5289H7.53933" stroke="#979797"/>
<path d="M4.56104 20.8684H7.53933" stroke="#979797"/>
<path d="M4.56104 25.079H7.53933" stroke="#979797"/>
<path d="M4.56104 29.5527H7.53933" stroke="#979797"/>
<path d="M17.0825 16.5289H20.0608" stroke="#979797"/>
<path d="M17.0825 20.8684H20.0608" stroke="#979797"/>
<path d="M17.0825 25.079H20.0608" stroke="#979797"/>
<path d="M17.0825 29.5527H20.0608" stroke="#979797"/>
<path d="M10.9175 16.5289H13.8958" stroke="#979797"/>
<path d="M10.9175 20.8684H13.8958" stroke="#979797"/>
<path d="M10.9175 25.079H13.8958" stroke="#979797"/>
<path d="M10.9175 29.5527H13.8958" stroke="#979797"/>
<path d="M22.7114 16.5289H25.6897" stroke="#979797"/>
<path d="M22.7114 20.8684H25.6897" stroke="#979797"/>
<path d="M22.7114 25.079H25.6897" stroke="#979797"/>
<path d="M22.7114 29.5527H25.6897" stroke="#979797"/>
<path d="M41.6758 19.9474V10.8325V7.05265C41.6758 7.05265 41.9423 4.24426 45.3734 4.24426C48.8045 4.24426 49.071 7.05265 49.071 7.05265V11.2632H42.5357" stroke="#979797"/>
<path d="M33.6162 4.24425H45.3734" stroke="#979797"/>
<path d="M41.6756 42.8036V47.5096C41.6756 47.5096 41.6756 50.8068 38.461 50.8068C35.2463 50.8068 34.9898 47.5096 34.9898 47.5096V44.6277H2.06104V47.5096C2.06104 47.5096 3.30544 50.8068 5.55657 50.8068C17.0823 50.8068 36.7221 50.8068 36.7221 50.8068" stroke="#979797"/>
<path d="M8.72093 41.643V44.4529" stroke="#979797"/>
<ellipse cx="41.6083" cy="31.921" rx="9.24742" ry="9.07895" stroke="#979797"/>
<path d="M49.071 15.6217V22.8421" stroke="#979797"/>
<path d="M45.394 18.9688L52.7484 18.9687" stroke="#979797"/>
<path d="M39.4946 30.1375L41.6081 27.7668L41.6756 35.7337" stroke="#979797"/>
</svg>
