<svg width="61" height="54" viewBox="0 0 61 54" fill="none" xmlns="http://www.w3.org/2000/svg">
<g opacity="0.9">
<path d="M26.8794 47.6525C26.8794 47.6525 8.87982 38.298 8.49444 27.3091C8.10906 16.3202 15.8099 8.17761 15.8099 8.17761" stroke="#979797"/>
<path d="M34.1206 47.6525C34.1206 47.6525 52.1202 38.298 52.5056 27.3091C52.8909 16.3202 45.1901 8.17761 45.1901 8.17761" stroke="#979797"/>
<path fill-rule="evenodd" clip-rule="evenodd" d="M38.3199 1.00457C38.3199 1.00457 41.7832 0.918271 43.452 2.46065C45.1208 4.00303 45.1899 8.17762 45.1899 8.17762C45.1899 8.17762 41.7418 8.11145 40.0308 6.17689C38.3199 4.24234 38.3199 1.00457 38.3199 1.00457Z" stroke="#979797"/>
<path fill-rule="evenodd" clip-rule="evenodd" d="M50.4814 4.57015C50.4814 4.57015 52.8626 7.09812 52.8384 9.37611C52.8141 11.6541 49.7724 14.4991 49.7724 14.4991C49.7724 14.4991 47.5141 11.8804 47.8003 9.30852C48.0864 6.73663 50.4814 4.57015 50.4814 4.57015Z" stroke="#979797"/>
<path fill-rule="evenodd" clip-rule="evenodd" d="M58.4788 16.3411C58.4788 16.3411 59.1055 19.7642 57.8502 21.6614C56.5949 23.5586 52.5016 24.2802 52.5016 24.2802C52.5016 24.2802 52.0273 20.8484 53.6615 18.848C55.2957 16.8476 58.4788 16.3411 58.4788 16.3411Z" stroke="#979797"/>
<path fill-rule="evenodd" clip-rule="evenodd" d="M59.7513 30.1482C59.7513 30.1482 58.6475 33.4473 56.6341 34.4953C54.6207 35.5432 50.6924 34.1807 50.6924 34.1807C50.6924 34.1807 51.9336 30.948 54.3282 29.9944C56.7229 29.0408 59.7513 30.1482 59.7513 30.1482Z" stroke="#979797"/>
<path fill-rule="evenodd" clip-rule="evenodd" d="M54.2767 41.3332C54.2767 41.3332 51.9327 43.896 49.6691 44.0306C47.4055 44.1652 44.3684 41.3153 44.3684 41.3153C44.3684 41.3153 46.811 38.8693 49.3847 38.9767C51.9584 39.084 54.2767 41.3332 54.2767 41.3332Z" stroke="#979797"/>
<path fill-rule="evenodd" clip-rule="evenodd" d="M45.7181 49.6062C45.7181 49.6062 42.7005 51.3159 40.5063 50.7411C38.3121 50.1664 36.3003 46.5131 36.3003 46.5131C36.3003 46.5131 39.3757 44.9452 41.7904 45.8463C44.2051 46.7474 45.7181 49.6062 45.7181 49.6062Z" stroke="#979797"/>
<path fill-rule="evenodd" clip-rule="evenodd" d="M22.6801 1.00457C22.6801 1.00457 19.2168 0.918271 17.548 2.46065C15.8792 4.00303 15.8101 8.17762 15.8101 8.17762C15.8101 8.17762 19.2582 8.11145 20.9692 6.17689C22.6801 4.24234 22.6801 1.00457 22.6801 1.00457Z" stroke="#979797"/>
<path fill-rule="evenodd" clip-rule="evenodd" d="M10.5186 4.57015C10.5186 4.57015 8.13739 7.09812 8.16164 9.37611C8.1859 11.6541 11.2276 14.4991 11.2276 14.4991C11.2276 14.4991 13.4859 11.8804 13.1997 9.30852C12.9136 6.73663 10.5186 4.57015 10.5186 4.57015Z" stroke="#979797"/>
<path fill-rule="evenodd" clip-rule="evenodd" d="M2.52116 16.3411C2.52116 16.3411 1.89454 19.7642 3.14981 21.6614C4.40509 23.5586 8.49836 24.2802 8.49836 24.2802C8.49836 24.2802 8.97271 20.8484 7.33848 18.848C5.70425 16.8476 2.52116 16.3411 2.52116 16.3411Z" stroke="#979797"/>
<path fill-rule="evenodd" clip-rule="evenodd" d="M1.24871 30.1482C1.24871 30.1482 2.35251 33.4473 4.36593 34.4953C6.37934 35.5432 10.3076 34.1807 10.3076 34.1807C10.3076 34.1807 9.06642 30.948 6.67177 29.9944C4.27712 29.0408 1.24871 30.1482 1.24871 30.1482Z" stroke="#979797"/>
<path fill-rule="evenodd" clip-rule="evenodd" d="M6.72331 41.3332C6.72331 41.3332 9.06734 43.896 11.3309 44.0306C13.5945 44.1652 16.6316 41.3153 16.6316 41.3153C16.6316 41.3153 14.189 38.8693 11.6153 38.9767C9.04157 39.084 6.72331 41.3332 6.72331 41.3332Z" stroke="#979797"/>
<path fill-rule="evenodd" clip-rule="evenodd" d="M15.2819 49.6062C15.2819 49.6062 18.2995 51.3159 20.4937 50.7411C22.6879 50.1664 24.6997 46.5131 24.6997 46.5131C24.6997 46.5131 21.6243 44.9452 19.2096 45.8463C16.7949 46.7474 15.2819 49.6062 15.2819 49.6062Z" stroke="#979797"/>
<rect x="22.7227" y="8.81348" width="15.5545" height="5.11917" stroke="#979797"/>
<path d="M24.1194 13.9326C24.1194 13.9326 23.9006 21.3875 23.3243 25.0624C22.748 28.7373 21.8286 28.541 21.8286 28.541C21.8286 28.541 25.3829 29.903 26.8795 32.1652C28.3762 34.4274 29.3979 39.9821 29.3979 39.9821H32.7565C32.7565 39.9821 32.9621 34.1216 34.1205 32.1652C35.2788 30.2088 39.5304 28.541 39.5304 28.541C39.5304 28.541 38.4168 27.3874 37.8158 24.2802C37.2148 21.173 36.7048 13.9326 36.7048 13.9326" stroke="#979797"/>
<path d="M30.6795 39.9821V25.6694" stroke="#979797"/>
<ellipse cx="30.6342" cy="23.2279" rx="2.54773" ry="2.55959" stroke="#979797"/>
</g>
</svg>
