<svg width="40" height="51" viewBox="0 0 40 51" fill="none" xmlns="http://www.w3.org/2000/svg">
<path d="M34.4648 47.1061H38.8568V1C38.8568 1 6.50193 1 4.01507 1C1.52822 1 1 4.65543 1 4.65543V42.5831C1 42.5831 1.08054 47.1061 4.01507 47.1061C6.94961 47.1061 10.66 47.1061 10.66 47.1061" stroke="#979797"/>
<path d="M14.395 50.9655V42.0747H31.0205V50.9655" stroke="#979797"/>
<path d="M28.3343 42.0748V38.3027L31.0209 36.0273V14.2114C31.0209 14.2114 30.6068 12.1778 28.848 12.1778C27.0893 12.1778 26.8641 13.4826 26.8641 13.4826V9.73104C26.8641 9.73104 26.4172 8.00432 24.6341 8.00432C22.851 8.00432 22.7081 9.38629 22.7081 9.38629C22.7081 9.38629 22.6386 6.40173 20.6513 6.40173C18.664 6.40173 18.4055 8.00432 18.4055 8.00432V10.8135C18.4055 10.8135 18.4055 9.38629 16.4895 9.38629C14.5735 9.38629 14.3954 10.8135 14.3954 10.8135C14.3954 10.8135 14.3954 28.4613 14.3954 24.6653C14.3954 22.026 10.2817 22.026 10.2817 22.026V31.3742L17.9684 38.3027" stroke="#979797"/>
<path d="M1 41.6533C1 41.6533 1.75508 37.2523 5.17204 37.2523C8.589 37.2523 16.6044 37.2523 16.6044 37.2523" stroke="#979797"/>
<path d="M29.582 37.2523H38.8567" stroke="#979797"/>
<path d="M34.2192 42.0747H38.8566" stroke="#979797"/>
<path d="M5.58837 37.2523V1" stroke="#979797"/>
<path d="M18.4053 10.8135V21.6527" stroke="#979797"/>
<path d="M22.708 9.38623V21.6526" stroke="#979797"/>
<path d="M26.8638 13.4825V21.6526" stroke="#979797"/>
</svg>
