<svg width="57" height="52" viewBox="0 0 57 52" fill="none" xmlns="http://www.w3.org/2000/svg">
<path d="M22.5119 51.8214V20.9866L17.1992 14.2079V13.1396L20.6694 7.4303L28.9222 7.4303C28.9222 7.4303 29.8003 11.6939 27.7735 11.6939C25.7468 11.6939 23.8656 11.6939 23.8656 11.6939V12.4191C23.8656 12.4191 27.354 12.3962 28.9222 14.6027C30.4905 16.8092 30.0468 18.3764 30.0468 18.3764" stroke="#979797"/>
<path d="M35.1221 51.8214V20.2598C35.1221 20.2598 38.2544 16.3151 38.2544 15.1511C38.2544 13.987 38.2544 3.36743 38.2544 3.36743" stroke="#979797"/>
<rect x="33.4155" y="1" width="4.78261" height="9.87958" rx="2.3913" stroke="#979797"/>
<rect x="28.6328" y="1" width="4.78261" height="9.87958" rx="2.3913" stroke="#979797"/>
<rect x="24.3818" y="1" width="4.25121" height="5.0733" rx="2.1256" stroke="#979797"/>
<rect x="20.6616" y="1" width="3.71981" height="5.0733" rx="1.8599" stroke="#979797"/>
<path d="M8.81738 3.79559H20.6906V7.43029" stroke="#979797"/>
<path d="M38.2544 3.79556H50.1941" stroke="#979797"/>
<path fill-rule="evenodd" clip-rule="evenodd" d="M37.4009 24.4998H55.7698C55.7698 24.4998 53.7773 32.0278 47.0144 32.0278C40.2515 32.0278 37.4009 24.4998 37.4009 24.4998Z" stroke="#979797"/>
<path fill-rule="evenodd" clip-rule="evenodd" d="M1 24.4998H19.3689C19.3689 24.4998 17.3764 32.0278 10.6135 32.0278C3.85057 32.0278 1 24.4998 1 24.4998Z" stroke="#979797"/>
<path d="M41.3916 24.4997L46.9342 8.59375L52.6265 24.4997" stroke="#979797"/>
<path d="M4.99072 24.4997L10.5333 8.59375L16.2256 24.4997" stroke="#979797"/>
</svg>
