<svg width="47" height="55" viewBox="0 0 47 55" fill="none" xmlns="http://www.w3.org/2000/svg">
<path fill-rule="evenodd" clip-rule="evenodd" d="M4.94727 12.0658L23.228 6.60651L40.895 12.0658C40.895 12.0658 40.895 24.9326 40.895 33.03C40.895 44.5583 23.228 48.9397 23.228 48.9397C23.228 48.9397 4.94727 44.8974 4.94727 33.03C4.94727 24.9326 4.94727 12.0658 4.94727 12.0658Z" stroke="#979797"/>
<path fill-rule="evenodd" clip-rule="evenodd" d="M1 7.83487L23.8841 1L46 7.83487C46 7.83487 46 23.9437 46 34.0815C46 48.5146 23.8841 54 23.8841 54C23.8841 54 1 48.9392 1 34.0815C1 23.9437 1 7.83487 1 7.83487Z" stroke="#979797"/>
<path d="M17.2739 8.50409L20.0412 14.6484H26.3457L29.1196 8.50409" stroke="#979797"/>
<path d="M26.3457 14.6484L29.1196 38.339L23.1968 40.956L17.2739 38.339L20.0412 14.6484" stroke="#979797"/>
</svg>
