<svg width="66" height="35" viewBox="0 0 66 35" fill="none" xmlns="http://www.w3.org/2000/svg">
<g opacity="0.9">
<path fill-rule="evenodd" clip-rule="evenodd" d="M59.3374 2.62793L64.9316 19.3979L55.7271 22.6813L49.6313 6.2727L59.3374 2.62793Z" stroke="#979797"/>
<path d="M49.9818 7.08792L45.1296 8.96366L42.3312 9.30653L33.9258 6.67505L25.3529 8.48502L23.9653 15.8388C23.9653 15.8388 26.4303 17.5299 27.6405 16.6843C28.8508 15.8388 30.4162 13.9754 30.4162 13.9754L29.8644 12.1969C29.8644 12.1969 31.4431 12.6547 32.4117 12.6547C33.3803 12.6547 34.934 11.8206 34.934 11.8206C34.934 11.8206 35.3981 13.4484 36.9736 13.9754C38.549 14.5024 41.3542 14.8656 41.3542 14.8656L52.0872 20.2974C52.0872 20.2974 53.8832 21.559 52.8351 23.3231C51.787 25.0872 48.8644 24.4858 48.8644 24.4858C48.8644 24.4858 49.6405 25.9473 48.5231 27.1928C47.4057 28.4383 44.3267 27.7047 44.3267 27.7047C44.3267 27.7047 45.6834 28.8994 44.156 30.3037C42.6285 31.7081 39.5647 30.3037 39.5647 30.3037C39.5647 30.3037 40.6562 32.3881 39.5647 33.351C38.4732 34.3138 38.2755 33.9197 36.9736 33.9197C35.6717 33.9197 33.9258 31.3447 33.9258 31.3447" stroke="#979797"/>
<path fill-rule="evenodd" clip-rule="evenodd" d="M19.9336 4.97523L13.3062 24.8545L1 20.7631L7.48509 1L19.9336 4.97523Z" stroke="#979797"/>
<path d="M18.8984 7.46827L20.7695 7.06887L26.8004 4.47437H35.094L36.3642 5.97132V7.46827" stroke="#979797"/>
<path fill-rule="evenodd" clip-rule="evenodd" d="M35.2562 29.1897L33.5713 31.8466C33.5713 31.8466 32.6792 32.9845 30.9659 32.3881C29.2526 31.7916 29.6552 30.0908 29.6552 30.0908L31.5391 27.0316C31.5391 27.0316 33.0888 25.4607 34.7264 26.5749C36.3639 27.6891 35.2562 29.1897 35.2562 29.1897Z" stroke="#979797"/>
<path fill-rule="evenodd" clip-rule="evenodd" d="M32.0623 26.1126C32.0623 26.1126 33.02 22.0084 30.9661 20.8183C28.9122 19.6282 27.2768 21.5072 27.2768 21.5072L25.2807 26.575C25.2807 26.575 24.1739 28.9714 25.9025 30.1067C27.6312 31.242 29.6554 30.1067 29.6554 30.1067L32.0623 26.1126Z" stroke="#979797"/>
<path fill-rule="evenodd" clip-rule="evenodd" d="M27.2768 21.5072C27.2768 21.5072 27.9518 19.6573 25.9585 18.9571C23.9653 18.2568 22.2313 20.2321 22.2313 20.2321L19.9337 25.3725C19.9337 25.3725 19.3228 27.3761 21.4591 28.1229C23.5954 28.8697 25.2807 26.575 25.2807 26.575L27.2768 21.5072Z" stroke="#979797"/>
<path fill-rule="evenodd" clip-rule="evenodd" d="M21.459 21.517C21.459 21.517 22.0207 19.7082 20.5558 18.7738C19.0908 17.8395 17.4844 18.9571 17.4844 18.9571L15.6449 22.6814C15.6449 22.6814 15.2236 25.1969 16.6124 25.8639C18.0011 26.5309 19.7978 25.3726 19.7978 25.3726L21.459 21.517Z" stroke="#979797"/>
<path d="M48.8641 24.4857L42.8438 21.1838" stroke="#979797"/>
<path d="M44.156 27.6892L40.6562 25.3726" stroke="#979797"/>
<path d="M39.4326 30.1067L38.7559 28.8696" stroke="#979797"/>
<path d="M14.1348 22.228L15.7318 22.4898" stroke="#979797"/>
<path d="M52.021 20.3374L54.6975 19.9083" stroke="#979797"/>
<ellipse cx="58.0122" cy="18.0026" rx="0.669456" ry="0.67623" stroke="#979797"/>
<ellipse cx="10.3467" cy="19.6257" rx="0.669456" ry="0.67623" stroke="#979797"/>
</g>
</svg>
