<svg width="52" height="51" viewBox="0 0 52 51" fill="none" xmlns="http://www.w3.org/2000/svg">
<g opacity="0.9">
<path d="M50.4482 50.8409V28.2498H41.3298L27.2934 42.0938L23.876 37.8416" stroke="#979797"/>
<path d="M16.7261 40.6571L23.8761 48.3667H29.9487L40.2095 37.9768" stroke="#979797"/>
<path d="M37.1625 41.3585V50.8409" stroke="#979797"/>
<path d="M37.1621 47.4791H50.4482" stroke="#979797"/>
<path d="M50.4485 13.9783H31.0503L35.8827 7.85641L31.9503 1L50.8072 1V20.7171C50.8072 20.7171 49.7463 25.2978 43.8055 25.2978C37.8646 25.2978 36.788 20.7171 36.788 20.7171V14.4616" stroke="#979797"/>
<path d="M35.8823 7.85645H50.8068" stroke="#979797"/>
<rect x="1" y="9.16248" width="20.2703" height="29.3011" stroke="#979797"/>
<ellipse cx="11.0002" cy="20.4527" rx="6.48649" ry="6.45161" stroke="#979797"/>
<path d="M4.51367 20.4528H17.4866" stroke="#979797"/>
<path d="M14.0629 25.8659V15.0782" stroke="#979797"/>
<path d="M8.87635 26.2323V15.0782" stroke="#979797"/>
<path d="M7.08936 32.3842H15.6522" stroke="#979797"/>
</g>
</svg>
