<svg width="49" height="52" viewBox="0 0 49 52" fill="none" xmlns="http://www.w3.org/2000/svg">
<path d="M23.5593 4.94788C23.5593 4.94788 1 7.07524 1 27.3795C1 47.6838 23.5593 50.9933 23.5593 50.9933C23.5593 50.9933 46.5622 50.2316 46.5622 24.7891" stroke="#979797"/>
<path d="M23.7809 23.8922V50.9933" stroke="#979797"/>
<path d="M2.29346 35.7877H45.2229" stroke="#979797"/>
<path d="M35.9374 35.7877C36.8389 45.0342 23.781 50.9933 23.781 50.9933C23.781 50.9933 10.6653 45.597 10.4493 28.6737C10.2334 11.7504 23.1934 4.94788 23.1934 4.94788" stroke="#979797"/>
<path d="M25.2014 19.493H2.29346" stroke="#979797"/>
<path fill-rule="evenodd" clip-rule="evenodd" d="M35.9958 28.6737C35.9958 28.6737 33.2564 26.4518 27.1122 17.9069C20.968 9.36194 26.7686 1 35.9958 1C45.223 1 51.3011 11.1583 46.0151 17.9069C40.729 24.6554 35.9958 28.6737 35.9958 28.6737Z" stroke="#979797"/>
<ellipse cx="36.5551" cy="12.4895" rx="5.80899" ry="5.78947" stroke="#979797"/>
</svg>
