<svg width="72" height="62" viewBox="0 0 72 62" fill="none" xmlns="http://www.w3.org/2000/svg">
<path fill-rule="evenodd" clip-rule="evenodd" d="M17.595 52.4026C17.6355 52.3665 17.6639 52.322 17.702 52.2841C20.8156 56.311 24.824 59.505 29.4895 61.5413C29.648 61.6099 29.8126 61.643 29.9753 61.643C30.4406 61.643 30.8853 61.374 31.0844 60.9219C31.3524 60.3134 31.0735 59.6031 30.4618 59.3364C26.7202 57.7033 23.4372 55.2528 20.7527 52.1902C22.8019 52.1589 24.6697 51.3083 26.1587 49.7156C28.5486 47.1597 29.4368 43.2507 29.2505 40.7015C29.1688 39.5729 28.3078 38.6537 27.1812 38.493C26.7057 38.4243 26.2132 38.39 25.7176 38.39C22.5484 38.39 19.5674 39.7288 17.7432 41.971C17.1551 42.6939 16.5549 43.6769 16.1864 44.935C16.1144 44.8555 16.037 44.7833 15.9613 44.7068C15.2311 43.081 14.6236 41.3727 14.1595 39.5885C14.099 39.3562 14.0536 39.1214 13.9986 38.8878C15.0447 39.3507 16.0987 39.5879 17.1472 39.5879C22.4105 39.5879 25.6166 33.8279 25.9064 29.6697C25.9814 28.5983 25.3334 27.6069 24.3182 27.2397C23.1783 26.8279 21.9186 26.61 20.6752 26.61C17.9737 26.61 15.5741 27.578 13.9193 29.3344C13.6561 29.6143 13.3845 29.9478 13.1237 30.3343C13.1903 28.1317 13.4849 25.9509 13.9853 23.8249C15.4446 24.8506 16.9712 25.3718 18.5334 25.3718C23.5244 25.3718 26.7559 20.1524 27.3688 16.6256C27.5479 15.5951 27.0378 14.5676 26.1073 14.0818C24.8748 13.4396 23.4741 13.0344 22.0783 12.8984C22.2483 12.6781 22.4135 12.4518 22.563 12.2092C24.5777 8.9274 24.2601 4.28282 22.9048 1.39049C22.5006 0.527301 21.6348 0 20.7121 0C20.5149 0 20.3152 0.0240777 20.1174 0.0740388C16.829 0.902913 13.9459 3.36666 12.7728 6.34988C12.3825 7.34309 12.1901 8.37181 12.1823 9.40895C10.8887 8.34291 9.34279 7.54173 7.70191 7.14264C7.51012 7.09569 7.3165 7.07342 7.12652 7.07342C6.18568 7.07342 5.30655 7.62118 4.91267 8.51025C3.63603 11.3899 3.42245 16.0092 5.48262 19.2651C6.45553 20.8007 8.32148 22.6366 11.72 22.8852C11.3001 24.5785 11.0109 26.3073 10.8475 28.0535C9.0445 26.2717 6.42346 25.2268 3.64329 25.2268C3.11146 25.2268 2.58326 25.2665 2.0726 25.3448C0.965982 25.5151 0.121343 26.4186 0.030587 27.5292C-0.178757 30.0863 0.671932 33.9989 3.03281 36.5475C4.52484 38.1577 6.41136 39.0088 8.48847 39.0088C9.43899 39.0088 10.424 38.8216 11.4193 38.4641C11.5385 39.0413 11.6674 39.618 11.8162 40.1917C12.0316 41.0211 12.2857 41.8307 12.5568 42.6301C11.6093 42.3285 10.5753 42.1612 9.46138 42.1612H9.46077C7.50225 42.1612 5.528 42.6777 3.90165 43.6155C2.98985 44.1404 2.52457 45.192 2.75086 46.2153C3.52652 49.727 7.23724 54.5913 12.1883 54.5913C14.093 54.5913 15.9626 53.8341 17.595 52.4026ZM25.7176 40.7978C26.0976 40.7978 26.4739 40.8237 26.837 40.8761C27.0742 44.1247 25.0715 49.7884 20.6377 49.7884C19.9661 49.7884 19.2383 49.6584 18.4541 49.3701C17.2204 43.6083 21.7679 40.7978 25.7176 40.7978ZM20.6752 29.0178C21.6481 29.0178 22.6168 29.1863 23.4923 29.503C23.2817 32.5181 20.9172 37.1801 17.1472 37.1801C16.2082 37.1801 15.1814 36.8906 14.0803 36.2152C13.7475 31.1174 17.2392 29.0178 20.6752 29.0178ZM24.9843 16.2151C24.5003 19.0009 21.9646 22.9641 18.5334 22.9641C17.4177 22.9641 16.2058 22.5439 14.9394 21.5278C15.1016 17.0085 18.0203 15.2514 21.0637 15.2514C22.4238 15.2514 23.8093 15.6029 24.9843 16.2151ZM20.7115 2.40777C22.2877 5.77262 22.2241 13.2373 15.8869 13.4763C12.394 8.13404 16.6402 3.43468 20.7115 2.40777ZM10.7223 36.1592C9.91758 36.4638 9.17277 36.6011 8.48847 36.6011C4.10312 36.6011 2.17667 30.9723 2.44289 27.7242C2.83254 27.6646 3.23489 27.6345 3.64269 27.6345C7.56154 27.6345 11.9971 30.4089 10.7223 36.1592ZM12.23 20.5057C5.88013 20.3065 5.63328 12.8515 7.12712 9.48118C10.4736 10.2956 13.9925 13.5521 13.3506 17.6327C13.0862 18.2376 12.875 18.8853 12.7347 19.5836C12.59 19.8882 12.4243 20.1957 12.23 20.5057ZM5.11476 45.6988C6.34904 44.9873 7.90944 44.569 9.46077 44.569C12.5671 44.5684 15.6383 46.2448 15.994 50.5968C14.7101 51.723 13.4147 52.1835 12.1883 52.1835C8.67543 52.1835 5.71435 48.4142 5.11476 45.6988Z" fill="#67CFF7"/>
<path fill-rule="evenodd" clip-rule="evenodd" d="M60.3429 38.4641C61.3376 38.8216 62.3226 39.0088 63.2737 39.0088C65.3503 39.0088 67.2374 38.1577 68.7288 36.5475C71.0903 33.9989 71.941 30.0863 71.731 27.5292C71.6409 26.4186 70.7956 25.5151 69.689 25.3448C69.1784 25.2665 68.6502 25.2268 68.1195 25.2268C65.3394 25.2268 62.7177 26.2717 60.9141 28.0535C60.7513 26.3073 60.4615 24.5785 60.0422 22.8852C63.4407 22.6366 65.3067 20.8007 66.279 19.2651C68.3398 16.0092 68.1256 11.3899 66.8495 8.51025C66.4557 7.62118 65.5759 7.07342 64.6357 7.07342C64.4451 7.07342 64.2521 7.09569 64.0603 7.14264C62.4194 7.54173 60.8735 8.34231 59.5794 9.40895C59.5721 8.37181 59.3797 7.34309 58.9894 6.34988C57.8157 3.36666 54.9332 0.902913 51.6448 0.0740388C51.447 0.0240777 51.2473 0 51.0501 0C50.1274 0 49.2616 0.527301 48.8574 1.39049C47.5015 4.28282 47.1845 8.9274 49.1993 12.2092C49.3481 12.4518 49.5139 12.6781 49.6839 12.899C48.2875 13.0344 46.8874 13.4396 45.6549 14.0818C44.7244 14.5676 44.2143 15.5951 44.3934 16.6256C45.0057 20.1524 48.2378 25.3718 53.2282 25.3718C54.7905 25.3718 56.3176 24.8506 57.7769 23.8249C58.2773 25.9509 58.5714 28.1317 58.6385 30.3343C58.3777 29.9478 58.1061 29.6143 57.8423 29.3344C56.1875 27.578 53.7885 26.61 51.0876 26.61C51.0876 26.61 51.0876 26.61 51.087 26.61C49.8436 26.61 48.5833 26.8279 47.444 27.2397C46.4288 27.6069 45.7808 28.5983 45.8558 29.6697C46.1456 33.8279 49.3517 39.5879 54.615 39.5879C55.6635 39.5879 56.7181 39.3507 57.7636 38.8884C57.708 39.1214 57.6626 39.3562 57.6027 39.5885C57.1386 41.3727 56.5306 43.0816 55.7997 44.7074C55.7252 44.7839 55.6472 44.8561 55.5758 44.9356C55.2073 43.6769 54.6071 42.6939 54.019 41.971C52.1942 39.7288 49.2132 38.39 46.0452 38.39H46.044C45.5484 38.39 45.0559 38.4243 44.5804 38.493C43.4544 38.6537 42.5934 39.5729 42.5111 40.7015C42.3254 43.2507 43.2136 47.1597 45.6035 49.7156C47.0919 51.3083 48.9597 52.1589 51.0095 52.1902C48.325 55.2528 45.042 57.7033 41.2998 59.3364C40.6887 59.6031 40.4098 60.3134 40.6785 60.9219C40.8769 61.374 41.321 61.643 41.7869 61.643C41.9496 61.643 42.1142 61.6099 42.2727 61.5413C46.9382 59.505 50.9466 56.311 54.0602 52.2841C54.0983 52.322 54.1267 52.3665 54.1673 52.4026C55.7991 53.8341 57.6692 54.5913 59.5733 54.5913C64.5244 54.5913 68.2357 49.727 69.0108 46.2153C69.237 45.192 68.7724 44.1404 67.8606 43.6155C66.2336 42.6777 64.2594 42.1612 62.3008 42.1612C61.187 42.1612 60.1529 42.3285 59.2054 42.6307C59.4759 41.8307 59.73 41.0211 59.946 40.1917C60.0949 39.618 60.2237 39.0413 60.3429 38.4641ZM68.1195 27.6345C68.5267 27.6345 68.9291 27.6646 69.3193 27.7242C69.5849 30.9723 67.6591 36.6011 63.2737 36.6011C62.5894 36.6011 61.8446 36.4638 61.0393 36.1592C59.7651 30.4089 64.2007 27.6345 68.1195 27.6345ZM53.2282 22.9641C49.797 22.9641 47.2619 19.0009 46.7779 16.2151C47.9529 15.6029 49.3378 15.252 50.6986 15.2514C53.7419 15.2514 56.6606 17.0085 56.8228 21.5278C55.5564 22.5439 54.3445 22.9641 53.2282 22.9641ZM55.8753 13.4763C49.5381 13.2373 49.4739 5.77262 51.0507 2.40777C55.122 3.43468 59.3682 8.13404 55.8753 13.4763ZM57.6819 36.2152C56.5802 36.8906 55.554 37.1801 54.615 37.1801C50.845 37.1801 48.4805 32.5181 48.2699 29.503C49.1454 29.1863 50.1141 29.0178 51.087 29.0178C54.523 29.0178 58.0141 31.1174 57.6819 36.2152ZM53.3081 49.3701C52.524 49.6584 51.7961 49.7884 51.1245 49.7884C46.6908 49.7884 44.6881 44.1247 44.9252 40.8761C45.2883 40.8237 45.664 40.7978 46.044 40.7978C49.9937 40.7972 54.5412 43.6083 53.3081 49.3701ZM62.3008 44.569C63.8528 44.569 65.4132 44.9873 66.6475 45.6988C66.0479 48.4142 63.0862 52.1835 59.5733 52.1835C58.3469 52.1835 57.0521 51.723 55.7676 50.5968C56.1234 46.2448 59.1952 44.569 62.3008 44.569ZM59.027 19.5836C58.8872 18.8853 58.676 18.2376 58.4116 17.6327C57.7697 13.5521 61.2892 10.2956 64.6351 9.48118C66.1289 12.8515 65.8815 20.3065 59.5322 20.5057C59.3379 20.1957 59.1716 19.8882 59.027 19.5836Z" fill="#67CFF7"/>
</svg>
