<svg width="50" height="75" viewBox="0 0 50 75" fill="none" xmlns="http://www.w3.org/2000/svg">
<path fill-rule="evenodd" clip-rule="evenodd" d="M46.7963 19.0034C46.7201 18.721 46.8841 17.8639 46.9915 17.2978C47.2689 15.8468 47.6128 14.0413 46.6524 12.395C45.6817 10.731 43.9201 10.1232 42.5043 9.63508C41.9994 9.46089 41.1537 9.16936 40.953 8.97399C40.7567 8.775 40.4622 7.93609 40.2866 7.43528C39.7945 6.03145 39.1823 4.28347 37.5049 3.32117C36.778 2.90444 35.9201 2.69214 34.9543 2.69214C34.1171 2.69214 33.2909 2.84758 32.5616 2.98427C32.0122 3.08649 31.4433 3.19355 31.0518 3.19355C30.9067 3.19355 30.8463 3.17903 30.8396 3.17722C30.5823 3.09859 29.9549 2.55968 29.539 2.20403C28.3951 1.22177 26.9707 0 25 0C23.0293 0 21.6049 1.22177 20.461 2.20403C20.0451 2.55968 19.4177 3.09859 19.1579 3.17782C19.1537 3.17903 19.0933 3.19355 18.9482 3.19355C18.5567 3.19355 17.9878 3.08649 17.4384 2.98427C16.7085 2.84698 15.8829 2.69214 15.0457 2.69214C14.0805 2.69214 13.2226 2.90383 12.4957 3.32056C10.8183 4.28347 10.2061 6.03085 9.71402 7.43468C9.53841 7.93548 9.2439 8.775 9.04695 8.97399C8.84634 9.16875 8.00061 9.46089 7.49573 9.63508C6.08049 10.1232 4.31829 10.7304 3.34817 12.3944C2.3878 14.0401 2.73171 15.8462 3.00854 17.2978C3.11585 17.8645 3.27927 18.721 3.20305 19.0058C3.12378 19.2611 2.58049 19.8835 2.22195 20.296C1.23232 21.4306 0 22.8435 0 24.7984C0 26.7532 1.23232 28.1661 2.22195 29.3008C2.58049 29.7133 3.12378 30.3357 3.20366 30.5933C3.27988 30.8758 3.11585 31.7329 3.00854 32.299C2.7311 33.75 2.3872 35.5554 3.34756 37.2018C4.31829 38.8657 6.07988 39.4736 7.49573 39.9617C8.00061 40.1359 8.84634 40.4274 9.04695 40.6228C9.24329 40.8218 9.5378 41.6607 9.71341 42.1615C10.1817 43.4976 10.7701 45.1379 12.2713 46.1232V72.271C12.2713 73.2508 12.8671 74.1339 13.7805 74.5077C14.0811 74.6311 14.397 74.6903 14.7098 74.6903C15.347 74.6903 15.9732 74.4429 16.4402 73.9772L24.9994 65.4351L33.5604 73.9772C34.0274 74.4429 34.6537 74.6903 35.2909 74.6903C35.6043 74.6903 35.9195 74.6311 36.2201 74.5077C37.1329 74.1339 37.7293 73.2508 37.7293 72.271V46.1226C39.2293 45.1367 39.8177 43.4982 40.286 42.1621C40.4616 41.6613 40.7561 40.8218 40.953 40.6228C41.1537 40.428 41.9994 40.1359 42.5043 39.9617C43.9201 39.4742 45.6817 38.8663 46.6524 37.203C47.6128 35.556 47.2689 33.7506 46.9915 32.2996C46.8841 31.7329 46.7201 30.8758 46.797 30.5909C46.8762 30.3357 47.4195 29.7133 47.778 29.3008C48.7677 28.1661 50 26.7532 50 24.7984C50 22.8435 48.7677 21.4306 47.778 20.296C47.4195 19.8835 46.8762 19.2611 46.7963 19.0034ZM35.2902 72.271L24.9994 62.0038L14.7104 72.271V46.8859C14.8226 46.8913 14.9305 46.9046 15.0457 46.9046C15.8829 46.9046 16.7091 46.7498 17.4384 46.6125C17.9878 46.5103 18.5567 46.4032 18.9482 46.4032C19.0933 46.4032 19.1537 46.4177 19.1604 46.4196C19.4177 46.4982 20.0451 47.0371 20.461 47.3927C21.6049 48.375 23.0293 49.5968 25 49.5968C26.9707 49.5968 28.3951 48.375 29.539 47.3927C29.9549 47.0371 30.5823 46.4982 30.8421 46.4189C30.8463 46.4177 30.9067 46.4032 31.0518 46.4032C31.4433 46.4032 32.0122 46.5103 32.5616 46.6125C33.2909 46.7498 34.1171 46.9046 34.9543 46.9046C35.0695 46.9046 35.178 46.8913 35.2902 46.8859V72.271ZM44.4409 29.9667C43.9537 31.7752 45.4652 34.4075 44.5415 35.9909C43.6043 37.5968 40.5421 37.6089 39.2281 38.9123C37.914 40.2157 37.9018 43.2526 36.2829 44.1823C35.8939 44.4054 35.4421 44.4853 34.9543 44.4853C33.7329 44.4853 32.2884 43.9839 31.0518 43.9839C30.7573 43.9839 30.475 44.0123 30.2104 44.0825C28.4476 44.5494 26.911 47.1774 25 47.1774C23.089 47.1774 21.5524 44.5494 19.7896 44.0825C19.525 44.0123 19.2427 43.9839 18.9482 43.9839C17.7116 43.9839 16.2671 44.4853 15.0457 44.4853C14.5579 44.4853 14.1061 44.4048 13.7165 44.1817C12.0976 43.2526 12.0854 40.2151 10.7713 38.9117C9.45732 37.6083 6.39573 37.5968 5.45854 35.9903C4.53476 34.4069 6.04634 31.7752 5.55915 29.9667C5.08841 28.2181 2.43902 26.694 2.43902 24.7984C2.43902 22.9028 5.08841 21.3786 5.55915 19.63C6.04634 17.8216 4.53476 15.1893 5.45915 13.6058C6.39573 12 9.45793 11.9879 10.772 10.6845C12.086 9.38105 12.0982 6.34415 13.7171 5.41452C14.1061 5.19133 14.5579 5.11149 15.0457 5.11149C16.2671 5.11149 17.7116 5.6129 18.9482 5.6129C19.2427 5.6129 19.525 5.58448 19.7896 5.51431C21.5524 5.04738 23.089 2.41935 25 2.41935C26.911 2.41935 28.4476 5.04738 30.2104 5.51431C30.475 5.58448 30.7573 5.6129 31.0518 5.6129C32.2884 5.6129 33.7329 5.11149 34.9543 5.11149C35.4421 5.11149 35.8939 5.19194 36.2835 5.41512C37.9024 6.34415 37.9146 9.38165 39.2287 10.6851C40.5427 11.9885 43.6043 12 44.5415 13.6065C45.4652 15.1899 43.9537 17.8216 44.4409 19.63C44.9116 21.3786 47.561 22.9028 47.561 24.7984C47.561 26.694 44.9116 28.2181 44.4409 29.9667Z" fill="#67CFF7"/>
<path fill-rule="evenodd" clip-rule="evenodd" d="M24.9999 11.8942C17.8267 11.8942 11.9907 17.6831 11.9907 24.7984C11.9907 31.9137 17.8267 37.7026 24.9999 37.7026C32.173 37.7026 38.009 31.9137 38.009 24.7984C38.009 17.6831 32.173 11.8942 24.9999 11.8942ZM24.9999 35.2833C19.1712 35.2833 14.4297 30.5801 14.4297 24.7984C14.4297 19.0167 19.1712 14.3135 24.9999 14.3135C30.8285 14.3135 35.57 19.0167 35.57 24.7984C35.57 30.5801 30.8285 35.2833 24.9999 35.2833Z" fill="#67CFF7"/>
</svg>
