<svg width="67" height="67" viewBox="0 0 67 67" fill="none" xmlns="http://www.w3.org/2000/svg">
<path fill-rule="evenodd" clip-rule="evenodd" d="M19.3619 44.1463C19.4935 45.368 20.5214 46.2952 21.7498 46.3018C25.7698 46.3223 26.4645 46.9096 27.2003 47.5314C28.6212 48.7319 30.0493 49.65 34.3482 49.65H34.42C35.4431 49.6476 36.2127 49.6168 37.027 49.5842C37.9499 49.5468 38.9036 49.5088 40.3546 49.5088C41.9023 49.5088 43.1898 49.143 44.1803 48.4217C45.2788 47.6219 45.909 46.434 45.909 45.1634C45.909 44.9009 45.8825 44.6449 45.8317 44.3981C46.6738 43.4323 47.1373 42.1973 47.1373 41.007C47.1373 40.564 47.0788 40.1432 46.9677 39.7515C47.6963 38.8244 48.0953 37.6733 48.0953 36.5621C48.0953 36.0635 48.0204 35.5933 47.881 35.1593C48.5775 34.2901 48.9204 33.2459 48.8981 32.2481C48.854 30.2623 47.3239 28.0259 44.0692 27.8068C42.294 27.6873 40.9106 27.5919 39.8621 27.5183C40.6178 23.1947 40.3631 20.3873 39.0925 18.7847C38.3585 17.8588 37.3185 17.3494 36.1632 17.3494C35.8904 17.3494 35.6115 17.3789 35.3351 17.4369C33.1186 17.9011 32.5078 20.2388 32.2784 21.1189C29.9835 29.9176 25.5959 29.9176 20.5154 29.9176C19.8303 29.9176 19.1772 30.2091 18.7191 30.7192C18.2609 31.2292 18.0418 31.9101 18.1149 32.5916L19.3619 44.1463ZM34.6144 21.7291C34.8275 20.913 35.1576 19.9406 35.83 19.8C35.9423 19.7765 36.0534 19.7638 36.1632 19.7638C37.6342 19.7638 38.7497 22.008 36.9413 29.7269C36.9413 29.7269 38.7943 29.8717 43.9075 30.2158C47.4681 30.4554 47.2581 34.345 43.7801 34.735C46.7885 34.735 45.9995 39.256 42.9966 39.256C45.7575 39.256 45.0899 43.7715 41.8274 43.7715C41.8649 43.7745 41.9017 43.7769 41.9367 43.78C44.1193 43.78 44.3626 47.0943 40.3546 47.0943C37.5823 47.0943 36.5435 47.2308 34.4146 47.2356C34.3916 47.2356 34.3699 47.2356 34.3482 47.2356C26.4959 47.2356 31.1503 43.9357 21.7625 43.8874L20.5154 32.332C25.9195 32.332 31.8813 32.2095 34.6144 21.7291Z" fill="#67CFF7"/>
<path fill-rule="evenodd" clip-rule="evenodd" d="M33.5 67C52.0017 67 67 52.0011 67 33.5C67 14.9983 52.0017 0 33.5 0C14.9983 0 0 14.9983 0 33.5C0 52.0011 14.9983 67 33.5 67ZM33.5 2.41441C50.6405 2.41441 64.5856 16.3595 64.5856 33.5C64.5856 50.6405 50.6405 64.5856 33.5 64.5856C16.3595 64.5856 2.41441 50.6405 2.41441 33.5C2.41441 16.3595 16.3595 2.41441 33.5 2.41441Z" fill="#67CFF7"/>
<path fill-rule="evenodd" clip-rule="evenodd" d="M20.6516 13.4151C24.4863 10.9567 28.9295 9.6577 33.4999 9.6577C38.0704 9.6577 42.5136 10.9567 46.3483 13.4151C46.5499 13.5443 46.7756 13.6065 46.9983 13.6065C47.3961 13.6065 47.7854 13.4097 48.016 13.05C48.3758 12.4886 48.2122 11.7419 47.6508 11.3822C43.4268 8.67443 38.5334 7.24329 33.4999 7.24329C28.4665 7.24329 23.5731 8.67443 19.3491 11.3822C18.7877 11.7419 18.6241 12.4886 18.9839 13.05C19.3436 13.6119 20.0903 13.7743 20.6516 13.4151Z" fill="#67CFF7"/>
<path fill-rule="evenodd" clip-rule="evenodd" d="M46.3483 53.5855C42.5136 56.0434 38.0704 57.3423 33.4999 57.3423C28.9295 57.3423 24.4863 56.0434 20.6516 53.5855C20.0909 53.2257 19.3442 53.3893 18.9839 53.9501C18.6241 54.5114 18.7877 55.2581 19.3491 55.6178C23.5731 58.3256 28.4665 59.7567 33.4999 59.7567C38.5334 59.7567 43.4268 58.3256 47.6508 55.6178C48.2122 55.2581 48.3758 54.5114 48.016 53.9501C47.6563 53.3893 46.9096 53.2257 46.3483 53.5855Z" fill="#67CFF7"/>
<path fill-rule="evenodd" clip-rule="evenodd" d="M53.9496 48.0161C54.1518 48.1458 54.3769 48.2074 54.6002 48.2074C54.998 48.2074 55.3873 48.0112 55.6179 47.6515C58.3257 43.4275 59.7568 38.5341 59.7568 33.5C59.7568 28.4666 58.3257 23.5731 55.6179 19.3491C55.2582 18.7878 54.5121 18.6248 53.9496 18.9846C53.3888 19.3443 53.2252 20.091 53.585 20.6523C56.0435 24.4864 57.3424 28.9289 57.3424 33.5C57.3424 38.0711 56.0435 42.5142 53.585 46.3483C53.2252 46.9097 53.3888 47.6563 53.9496 48.0161Z" fill="#67CFF7"/>
<path fill-rule="evenodd" clip-rule="evenodd" d="M12.3997 48.2074C12.6231 48.2074 12.8482 48.1458 13.0504 48.0161C13.6112 47.6563 13.7748 46.9097 13.415 46.3483C10.9565 42.5142 9.65758 38.0711 9.65758 33.5C9.65758 28.9289 10.9565 24.4864 13.415 20.6523C13.7748 20.091 13.6112 19.3443 13.0504 18.9846C12.4891 18.6248 11.7418 18.7878 11.3821 19.3491C8.67431 23.5731 7.24316 28.4666 7.24316 33.5C7.24316 38.5341 8.67431 43.4275 11.3821 47.6515C11.6127 48.0112 12.002 48.2074 12.3997 48.2074Z" fill="#67CFF7"/>
</svg>
