<svg width="986" height="769" viewBox="0 0 986 769" fill="none" xmlns="http://www.w3.org/2000/svg">
<path fill-rule="evenodd" clip-rule="evenodd" d="M-202 170.96L6.88977 388C6.88977 388 191.221 193.269 316.019 97.0533C440.817 0.837769 692 -140.199 692 -140.199L391.965 -433L-202 170.96ZM212.485 590L72 429.775C72 429.775 244.952 257.9 367.282 170.215C489.612 82.5301 755.289 -60 755.289 -60L986 179.774L922.923 258.409C922.923 258.409 666.448 327.1 547.292 382.715C428.136 438.33 212.485 590 212.485 590ZM396.268 769L271 622.846C271 622.846 395.216 528.323 493.384 480.313C591.552 432.302 788 370 788 370L396.268 769Z" fill="#E3EEF3"/>
</svg>
