<svg width="37" height="35" viewBox="0 0 37 35" fill="none" xmlns="http://www.w3.org/2000/svg">
<circle cx="18.5" cy="17.5" r="17.5" stroke="#67CFF7" stroke-width="2"/>
<path fill-rule="evenodd" clip-rule="evenodd" d="M13.1051 8.47254C13.6768 8.25006 14.3315 8.09814 15.2897 8.0545C16.2498 8.01015 16.5569 8 19.0011 8C21.4453 8 21.7521 8.01087 22.7117 8.0545C23.6692 8.09742 24.3235 8.25006 24.8964 8.47254C25.4875 8.70229 25.9899 9.00973 26.49 9.51063C26.9902 10.0115 27.2978 10.5132 27.5282 11.1049C27.7507 11.6767 27.9026 12.3313 27.9462 13.2895C27.9898 14.2491 28 14.5559 28 17C28 19.4441 27.9898 19.7502 27.9462 20.7105C27.9033 21.6686 27.7507 22.323 27.5282 22.8951C27.2978 23.4868 26.991 23.9893 26.49 24.4894C25.9891 24.9895 25.4875 25.2971 24.8957 25.5275C24.3235 25.7499 23.6692 25.9019 22.711 25.9455C21.7514 25.9898 21.4446 26 19.0004 26C16.5562 26 16.2498 25.9891 15.2897 25.9455C14.3315 25.9019 13.6779 25.7499 13.1051 25.5275C12.5129 25.2971 12.0115 24.9893 11.5107 24.4894C11.0098 23.9895 10.7023 23.4868 10.4726 22.8951C10.2501 22.323 10.0981 21.6687 10.0545 20.7105C10.0102 19.7509 10 19.4441 10 17C10 14.5559 10.0102 14.2491 10.0545 13.2895C10.0981 12.3314 10.2501 11.677 10.4726 11.1049C10.7023 10.5128 11.0098 10.0107 11.5107 9.51063C12.0116 9.01052 12.5129 8.70229 13.1051 8.47254ZM15.4091 24.234C14.5426 24.1946 14.0717 24.0502 13.7587 23.9283C13.3438 23.7668 13.0477 23.5744 12.7364 23.2636C12.4252 22.9527 12.2325 22.657 12.0717 22.2421C11.9497 21.9293 11.8054 21.4582 11.766 20.5917C11.7229 19.655 11.7143 19.3736 11.7143 17.0004C11.7143 14.6271 11.7236 14.3465 11.766 13.409C11.8054 12.5425 11.9508 12.0724 12.0717 11.7586C12.2332 11.3437 12.4256 11.0477 12.7364 10.7364C13.0473 10.4252 13.3431 10.2325 13.7587 10.0717C14.0715 9.94968 14.5426 9.80536 15.4091 9.76597C16.3458 9.72289 16.6272 9.71429 18.9995 9.71429C21.3717 9.71429 21.6534 9.7236 22.5909 9.76597C23.4574 9.80543 23.9276 9.95082 24.2413 10.0717C24.6562 10.2325 24.9523 10.4256 25.2636 10.7364C25.5748 11.0473 25.7668 11.3437 25.9283 11.7586C26.0503 12.0715 26.1946 12.5425 26.234 13.409C26.2771 14.3465 26.2857 14.6271 26.2857 17.0004C26.2857 19.3736 26.2771 19.6542 26.234 20.5917C26.1946 21.4582 26.0495 21.9291 25.9283 22.2421C25.7668 22.657 25.5744 22.953 25.2636 23.2636C24.9527 23.5741 24.6562 23.7668 24.2413 23.9283C23.9285 24.0503 23.4574 24.1946 22.5909 24.234C21.6542 24.2771 21.3728 24.2857 18.9995 24.2857C16.6262 24.2857 16.3456 24.2771 15.4091 24.234ZM24.1423 14C23.4323 13.9997 22.8569 13.4239 22.8571 12.7138C22.8578 12.004 23.4331 11.4289 24.1429 11.4286H24.1434C24.8535 11.4289 25.4289 12.0047 25.4286 12.7148C25.4283 13.4249 24.8524 14.0003 24.1423 14ZM14.2857 17C14.2857 19.6037 16.3963 21.7143 19 21.7143C21.6037 21.7143 23.7143 19.6037 23.7143 17C23.7143 14.3963 21.6037 12.2857 19 12.2857C16.3963 12.2857 14.2857 14.3963 14.2857 17ZM16 17C16 15.3433 17.3428 14 18.9996 14C20.6565 14 22 15.3433 22 17C22 18.6567 20.6565 20 18.9996 20C17.3428 20 16 18.6567 16 17Z" fill="#B5B5B5"/>
</svg>
