<svg width="1188" height="602" viewBox="0 0 1188 602" fill="none" xmlns="http://www.w3.org/2000/svg">
<path fill-rule="evenodd" clip-rule="evenodd" d="M0 3.95978L208.89 221C208.89 221 393.221 26.2689 518.019 -69.9467C642.817 -166.162 894 -307.199 894 -307.199L593.965 -600L0 3.95978ZM414.485 423L274 262.775C274 262.775 446.952 90.9001 569.282 3.21509C691.612 -84.4699 957.289 -227 957.289 -227L1188 12.774L1124.92 91.409C1124.92 91.409 868.448 160.1 749.292 215.715C630.136 271.33 414.485 423 414.485 423ZM598.268 602L473 455.846C473 455.846 597.216 361.323 695.384 313.313C793.552 265.302 990 203 990 203L598.268 602Z" fill="#E3EEF3"/>
</svg>
